<?xml version="1.0" encoding="utf-8"?>
<!-- Generator: Adobe Illustrator 20.0.0, SVG Export Plug-In . SVG Version: 6.00 Build 0)  -->
<svg version="1.1" id="Layer_1" xmlns="http://www.w3.org/2000/svg" xmlns:xlink="http://www.w3.org/1999/xlink" x="0px" y="0px"
	 viewBox="0 0 299.8 87.2" style="enable-background:new 0 0 299.8 87.2;" xml:space="preserve">
<style type="text/css">
	.st0{fill:#4D4D4C;}
	.st1{fill:#F3B435;}
</style>
<g>
	<g>
		<g>
			<path class="st0" d="M103.8,77.5H88.6l-4,8.6h-5.8l17.6-37.8l17,37.8h-5.8L103.8,77.5z M101.7,72.5l-5.3-12.1l-5.5,12.1H101.7z"
				/>
			<path class="st0" d="M122.1,47.3v38.9h-5.2V47.3H122.1z"/>
			<path class="st0" d="M146.1,64.7v6.9c-1.2-1.4-2.2-2.4-3.2-3c-0.9-0.6-2-0.8-3.2-0.8c-1.9,0-3.6,0.7-4.9,2
				c-1.3,1.4-1.9,3.1-1.9,5.1c0,2.1,0.6,3.8,1.9,5.2c1.3,1.4,2.9,2,4.8,2c1.2,0,2.3-0.3,3.3-0.8c0.9-0.5,2-1.5,3.2-3v6.8
				c-2.1,1.1-4.2,1.6-6.3,1.6c-3.5,0-6.4-1.1-8.7-3.4c-2.3-2.3-3.5-5.1-3.5-8.4s1.2-6.2,3.5-8.5c2.4-2.3,5.3-3.5,8.7-3.5
				C142,63.1,144.1,63.6,146.1,64.7z"/>
			<path class="st0" d="M152.3,47.3h5.2v18.3c1.8-1.7,3.9-2.5,6.1-2.5c2.5,0,4.6,0.8,6.1,2.5c1.3,1.4,1.9,3.7,1.9,6.8v13.8h-5.2
				V72.9c0-1.8-0.3-3.1-1-3.9c-0.6-0.8-1.7-1.2-3.1-1.2c-1.8,0-3.1,0.6-3.8,1.7c-0.7,1.1-1.1,3.1-1.1,5.8v10.9h-5.2V47.3H152.3z"/>
			<path class="st0" d="M198.6,76.2h-16c0.1,1.8,0.7,3.3,1.8,4.4c1.1,1.1,2.4,1.6,4.1,1.6c1.3,0,2.4-0.3,3.2-0.9
				c0.8-0.6,1.8-1.8,2.8-3.4l4.4,2.4c-0.7,1.2-1.4,2.1-2.1,3c-0.8,0.8-1.6,1.5-2.4,2c-0.9,0.5-1.8,0.9-2.8,1.2
				c-1,0.2-2.1,0.4-3.2,0.4c-3.3,0-6-1.1-8.1-3.2c-2-2.2-3-5-3-8.6c0-3.5,1-6.4,2.9-8.6c2-2.2,4.6-3.2,7.9-3.2s5.9,1.1,7.8,3.2
				s2.9,5,2.9,8.7L198.6,76.2z M193.3,71.9c-0.7-2.8-2.5-4.1-5.2-4.1c-0.6,0-1.2,0.1-1.8,0.3c-0.6,0.2-1.1,0.5-1.5,0.8
				c-0.5,0.4-0.8,0.8-1.2,1.3c-0.3,0.5-0.6,1.1-0.7,1.7L193.3,71.9L193.3,71.9z"/>
			<path class="st0" d="M204.3,63.7h5.2v2.1c1-1,1.8-1.8,2.6-2.1c0.8-0.4,1.7-0.6,2.8-0.6c2.5,0,4.5,1.1,6,3.3
				c1.6-2.2,3.8-3.3,6.6-3.3c5.1,0,7.6,3.1,7.6,9.2v13.9h-5.2V73.7c0-2.1-0.3-3.7-0.8-4.6s-1.4-1.4-2.6-1.4c-1.4,0-2.5,0.5-3.1,1.6
				c-0.7,1.1-1,2.8-1,5.2v11.7h-5.2V73.8c0-4-1.2-6-3.5-6c-1.5,0-2.5,0.5-3.2,1.6s-1,2.8-1,5.2v11.6h-5.2L204.3,63.7L204.3,63.7z"/>
			<path class="st0" d="M240.8,54.4c0-0.9,0.3-1.7,1-2.3c0.7-0.7,1.5-1,2.4-1s1.7,0.3,2.4,1c0.7,0.6,1,1.4,1,2.4
				c0,0.9-0.3,1.7-1,2.4c-0.6,0.7-1.4,1-2.4,1s-1.7-0.3-2.4-1C241.1,56.2,240.8,55.4,240.8,54.4z M246.8,63.7v22.5h-5.2V63.8h5.2
				V63.7z"/>
			<path class="st0" d="M266.4,67.6l-4.3,2.3c-0.7-1.4-1.5-2-2.5-2c-0.5,0-0.9,0.2-1.2,0.5c-0.3,0.3-0.5,0.7-0.5,1.2
				c0,0.9,1,1.7,3,2.6c2.7,1.2,4.6,2.3,5.5,3.3c1,1,1.4,2.3,1.4,4c0,2.2-0.8,4-2.4,5.4c-1.5,1.4-3.4,2.1-5.6,2.1
				c-3.8,0-6.4-1.8-8-5.5l4.4-2c0.6,1.1,1.1,1.8,1.4,2c0.6,0.6,1.4,0.9,2.3,0.9c1.8,0,2.6-0.8,2.6-2.4c0-0.9-0.7-1.8-2-2.6
				c-0.5-0.3-1-0.5-1.6-0.8c-0.5-0.2-1.1-0.5-1.6-0.8c-1.5-0.7-2.6-1.5-3.2-2.2c-0.8-0.9-1.2-2.1-1.2-3.6c0-1.9,0.7-3.6,2-4.8
				c1.4-1.3,3-1.9,5-1.9C262.8,63.1,265,64.6,266.4,67.6z"/>
			<path class="st0" d="M277.8,68.6v17.6h-5.2V68.6h-2.2v-4.8h2.2v-8.2h5.2v8.2h4v4.8H277.8z"/>
			<path class="st0" d="M298.4,67.6l-4.3,2.3c-0.7-1.4-1.5-2-2.5-2c-0.5,0-0.9,0.2-1.2,0.5c-0.3,0.3-0.5,0.7-0.5,1.2
				c0,0.9,1,1.7,3,2.6c2.7,1.2,4.6,2.3,5.5,3.3c1,1,1.4,2.3,1.4,4c0,2.2-0.8,4-2.4,5.4S294,87,291.8,87c-3.8,0-6.4-1.8-8-5.5l4.4-2
				c0.6,1.1,1.1,1.8,1.4,2c0.6,0.6,1.4,0.9,2.3,0.9c1.8,0,2.6-0.8,2.6-2.4c0-0.9-0.7-1.8-2-2.6c-0.5-0.3-1-0.5-1.6-0.8
				c-0.5-0.2-1.1-0.5-1.6-0.8c-1.5-0.7-2.6-1.5-3.2-2.2c-0.8-0.9-1.2-2.1-1.2-3.6c0-1.9,0.7-3.6,2-4.8c1.4-1.3,3-1.9,5-1.9
				C294.9,63.1,297,64.6,298.4,67.6z"/>
			<path class="st0" d="M121.2,27.5c0-3.2,1.2-6,3.5-8.3s5.1-3.4,8.5-3.4c3.3,0,6.2,1.1,8.5,3.4s3.5,5.1,3.5,8.4
				c0,3.4-1.2,6.2-3.5,8.5s-5.2,3.4-8.6,3.4s-6.2-1.2-8.5-3.5C122.3,33.8,121.2,30.9,121.2,27.5z M126.5,27.6c0,2.2,0.6,4,1.8,5.3
				c1.2,1.3,2.8,2,4.9,2c2,0,3.6-0.7,4.9-2c1.2-1.3,1.8-3,1.8-5.2s-0.6-3.9-1.8-5.2c-1.2-1.3-2.8-2-4.9-2c-2,0-3.6,0.7-4.8,2
				C127.1,23.8,126.5,25.5,126.5,27.6z"/>
			<path class="st0" d="M167.1,0h5.2v38.9h-5.2v-2.3c-2,2-4.4,3-6.9,3c-3.1,0-5.6-1.1-7.6-3.4s-3-5.1-3-8.6c0-3.3,1-6.1,3-8.4
				s4.5-3.4,7.5-3.4c2.6,0,5,1.1,7,3.2V0z M154.8,27.6c0,2.1,0.6,3.9,1.7,5.3c1.2,1.4,2.7,2,4.5,2c1.9,0,3.5-0.7,4.7-2
				c1.2-1.4,1.8-3.1,1.8-5.2s-0.6-3.8-1.8-5.2c-1.2-1.3-2.7-2-4.6-2c-1.8,0-3.3,0.7-4.5,2C155.4,23.9,154.8,25.6,154.8,27.6z"/>
			<path class="st0" d="M199.3,28.9h-16.1c0.1,1.8,0.7,3.3,1.8,4.4c1.1,1.1,2.4,1.6,4.1,1.6c1.3,0,2.4-0.3,3.2-0.9
				c0.8-0.6,1.8-1.8,2.8-3.4l4.4,2.4c-0.7,1.2-1.4,2.1-2.1,3c-0.8,0.8-1.6,1.5-2.4,2c-0.9,0.5-1.8,0.9-2.8,1.2
				c-1,0.2-2.1,0.4-3.2,0.4c-3.3,0-6-1.1-8.1-3.2c-2-2.2-3-5-3-8.6c0-3.5,1-6.4,2.9-8.6c2-2.2,4.6-3.2,7.9-3.2s5.9,1.1,7.8,3.2
				s2.9,5,2.9,8.7L199.3,28.9z M193.9,24.6c-0.7-2.8-2.5-4.1-5.2-4.1c-0.6,0-1.2,0.1-1.8,0.3c-0.6,0.2-1.1,0.5-1.5,0.8
				c-0.5,0.4-0.8,0.8-1.2,1.3c-0.3,0.5-0.6,1.1-0.7,1.7L193.9,24.6L193.9,24.6z"/>
			<path class="st0" d="M204.9,16.4h5.2v2c1-1,1.8-1.7,2.5-2c0.8-0.4,1.6-0.6,2.7-0.6c1.4,0,2.8,0.4,4.3,1.3l-2.4,4.7
				c-1-0.7-1.9-1.1-2.9-1.1c-2.8,0-4.2,2.1-4.2,6.4v11.6h-5.2V16.4z"/>
			<path class="st0" d="M223.3,16.4h5.2v2.1c1.8-1.8,3.9-2.7,6.1-2.7c2.6,0,4.6,0.8,6.1,2.5c1.3,1.4,1.9,3.7,1.9,6.8v13.7h-5.2V26.3
				c0-2.2-0.3-3.7-0.9-4.6s-1.7-1.3-3.3-1.3c-1.7,0-2.9,0.6-3.7,1.7c-0.7,1.1-1.1,3.1-1.1,5.9v10.8h-5.2V16.4H223.3z"/>
			<path class="st0" d="M76.6,39.4l7.5-38.2l12.2,27.6l12.6-27.6l6.7,38.2h-5.5l-3.4-21.5L96.2,41L86,17.9l-3.8,21.5H76.6z"/>
		</g>
	</g>
	<g>
		<polygon class="st1" points="26.5,22.1 37.3,44.9 37.2,45 42.2,56.2 50.4,56.2 25.9,2.3 0,64.2 17.8,64.2 21.3,57.2 11.3,57.2 		
			"/>
		<polygon class="st1" points="20.2,80.2 36.1,45 32,36.2 8.2,87.2 64.3,87.2 54.5,65.2 46,65.2 52.3,80.2 		"/>
		<polygon class="st1" points="62,57.2 31.5,57.2 28,64.2 73.4,64.2 47.5,2.3 37.2,24.8 41.3,33.8 46.9,22.1 		"/>
	</g>
</g>
</svg>
