<svg id="Layer_1" data-name="Layer 1" xmlns="http://www.w3.org/2000/svg" viewBox="0 0 308.13 158.31"><defs><style>.cls-1{fill:#fff;}</style></defs><title>1</title><path class="cls-1" d="M126.79,277.13a3.27,3.27,0,0,1,2.14.62,2.15,2.15,0,0,1,.74,1.75,1.84,1.84,0,0,1-.35,1.1,2.29,2.29,0,0,1-1,.76,1.74,1.74,0,0,1,1,.74,2.44,2.44,0,0,1,.31,1.27v.69a1.29,1.29,0,0,0,.1.58.42.42,0,0,0,.33.22l.28,0v.76h-.62a1,1,0,0,1-1-.47,2.15,2.15,0,0,1-.28-1.14v-.66a1.55,1.55,0,0,0-.4-1.12,1.43,1.43,0,0,0-1.08-.42h-1.85v2.91l1,.16v.74H123v-.74l1-.16V278l-1-.16v-.74h3.74Zm-1.63,3.81h1.52a2.17,2.17,0,0,0,1.41-.37,1.33,1.33,0,0,0,.44-1.08,1.39,1.39,0,0,0-.42-1.07,1.87,1.87,0,0,0-1.31-.39h-1.63Z" transform="translate(-39.73 -257.8)"/><path class="cls-1" d="M134.16,285.78a2.67,2.67,0,0,1-2.11-.88,3.32,3.32,0,0,1-.78-2.29v-.26a3.25,3.25,0,0,1,.81-2.25,2.48,2.48,0,0,1,1.91-.9,2.4,2.4,0,0,1,1.94.77,3.07,3.07,0,0,1,.66,2.06v.72h-4.11l0,0a2.51,2.51,0,0,0,.46,1.5,1.47,1.47,0,0,0,1.25.59,2.9,2.9,0,0,0,1-.17,2.36,2.36,0,0,0,.76-.46l.45.75a2.77,2.77,0,0,1-.9.55A3.59,3.59,0,0,1,134.16,285.78Zm-.18-5.67a1.25,1.25,0,0,0-1,.49,2.32,2.32,0,0,0-.5,1.23v0h2.92v-.15a1.77,1.77,0,0,0-.36-1.14A1.29,1.29,0,0,0,134,280.11Z" transform="translate(-39.73 -257.8)"/><path class="cls-1" d="M137.72,282.6a4.23,4.23,0,0,1,.65-2.47,2.1,2.1,0,0,1,1.83-.94,2.26,2.26,0,0,1,1,.21,2,2,0,0,1,.74.61l.09-.7h1v7.87l1,.16v.74h-3.06v-.74l1-.16v-2.13a2,2,0,0,1-.72.54,2.37,2.37,0,0,1-1,.18,2.17,2.17,0,0,1-1.81-.84,3.51,3.51,0,0,1-.65-2.21Zm1.15.12a2.78,2.78,0,0,0,.39,1.56,1.35,1.35,0,0,0,1.21.59,1.51,1.51,0,0,0,.82-.21,1.72,1.72,0,0,0,.57-.6v-3.18a1.79,1.79,0,0,0-.57-.57,1.49,1.49,0,0,0-.8-.21,1.31,1.31,0,0,0-1.22.7,3.62,3.62,0,0,0-.4,1.8Z" transform="translate(-39.73 -257.8)"/><path class="cls-1" d="M149,284.72a2.14,2.14,0,0,1-.77.79,2.12,2.12,0,0,1-1.09.28,2,2,0,0,1-1.61-.66,3.07,3.07,0,0,1-.58-2.06v-2.83l-.73-.16v-.74h1.88v3.75a2.36,2.36,0,0,0,.3,1.39,1.11,1.11,0,0,0,.93.38,1.9,1.9,0,0,0,1-.25,1.56,1.56,0,0,0,.61-.71v-3.66l-.85-.16v-.74h2v5.44l.73.16v.74H149.1Z" transform="translate(-39.73 -257.8)"/><path class="cls-1" d="M154.67,285.78a2.67,2.67,0,0,1-2.11-.88,3.32,3.32,0,0,1-.78-2.29v-.26a3.25,3.25,0,0,1,.81-2.25,2.48,2.48,0,0,1,1.91-.9,2.4,2.4,0,0,1,1.94.77,3.07,3.07,0,0,1,.66,2.06v.72H153l0,0a2.51,2.51,0,0,0,.46,1.5,1.47,1.47,0,0,0,1.25.59,2.9,2.9,0,0,0,1-.17,2.36,2.36,0,0,0,.76-.46l.45.75a2.77,2.77,0,0,1-.9.55A3.59,3.59,0,0,1,154.67,285.78Zm-.18-5.67a1.25,1.25,0,0,0-1,.49,2.32,2.32,0,0,0-.5,1.23v0h2.92v-.15a1.77,1.77,0,0,0-.36-1.14A1.29,1.29,0,0,0,154.49,280.11Z" transform="translate(-39.73 -257.8)"/><path class="cls-1" d="M163.08,281.31h-.87l-.19-.76a1.56,1.56,0,0,0-.53-.32,2,2,0,0,0-.72-.12,1.33,1.33,0,0,0-.91.27.85.85,0,0,0-.3.65.73.73,0,0,0,.26.59,2.73,2.73,0,0,0,1.07.39,4.62,4.62,0,0,1,1.79.7,1.41,1.41,0,0,1,.59,1.19,1.64,1.64,0,0,1-.68,1.37,2.86,2.86,0,0,1-1.78.52,4.64,4.64,0,0,1-1.29-.17,3.45,3.45,0,0,1-1-.48v-1.45h.87l.22.85a1.21,1.21,0,0,0,.54.26,3,3,0,0,0,.7.08,1.63,1.63,0,0,0,1-.25.77.77,0,0,0,.35-.65.79.79,0,0,0-.29-.63,2.73,2.73,0,0,0-1.1-.43,4.61,4.61,0,0,1-1.74-.69,1.38,1.38,0,0,1-.59-1.17,1.66,1.66,0,0,1,.66-1.32,2.6,2.6,0,0,1,1.71-.54,4.16,4.16,0,0,1,1.29.19,2.7,2.7,0,0,1,1,.52Z" transform="translate(-39.73 -257.8)"/><path class="cls-1" d="M166.36,277.79v1.53h1.2v.86h-1.2V284a.86.86,0,0,0,.18.63.67.67,0,0,0,.49.18l.34,0,.32-.06.16.79a1.48,1.48,0,0,1-.48.17,3,3,0,0,1-.63.07,1.49,1.49,0,0,1-1.12-.42,1.84,1.84,0,0,1-.42-1.33v-3.85h-1v-.86h1v-1.53Z" transform="translate(-39.73 -257.8)"/><path class="cls-1" d="M260.91,260.44H260l-.22-1.22a2.12,2.12,0,0,0-.7-.37,3.23,3.23,0,0,0-1-.15,2.23,2.23,0,0,0-1.41.39,1.24,1.24,0,0,0-.49,1,1.12,1.12,0,0,0,.5.93,4.76,4.76,0,0,0,1.62.65,4.59,4.59,0,0,1,2,1,2.11,2.11,0,0,1,.7,1.61,2,2,0,0,1-.84,1.66,3.59,3.59,0,0,1-2.2.63,4.47,4.47,0,0,1-1.75-.32,3.52,3.52,0,0,1-1.25-.84v-1.59h.87l.22,1.22a2.81,2.81,0,0,0,.8.45,3.12,3.12,0,0,0,1.11.18,2.3,2.3,0,0,0,1.38-.37,1.17,1.17,0,0,0,.51-1,1.27,1.27,0,0,0-.44-1,3.69,3.69,0,0,0-1.55-.67,5.19,5.19,0,0,1-2.12-.95,2,2,0,0,1-.76-1.58,2,2,0,0,1,.85-1.67,3.48,3.48,0,0,1,2.21-.67,4.19,4.19,0,0,1,1.63.31,3.68,3.68,0,0,1,1.18.75Z" transform="translate(-39.73 -257.8)"/><path class="cls-1" d="M265,266.57a2.67,2.67,0,0,1-2.11-.88,3.32,3.32,0,0,1-.78-2.29v-.26a3.25,3.25,0,0,1,.81-2.25,2.48,2.48,0,0,1,1.91-.9,2.4,2.4,0,0,1,1.94.77,3.07,3.07,0,0,1,.66,2.06v.72h-4.11l0,0a2.51,2.51,0,0,0,.46,1.5,1.47,1.47,0,0,0,1.25.59,2.9,2.9,0,0,0,1-.17,2.36,2.36,0,0,0,.76-.46l.45.75a2.77,2.77,0,0,1-.9.55A3.59,3.59,0,0,1,265,266.57Zm-.18-5.67a1.25,1.25,0,0,0-1,.49,2.32,2.32,0,0,0-.5,1.23v0h2.92v-.15a1.77,1.77,0,0,0-.36-1.14A1.29,1.29,0,0,0,264.86,260.9Z" transform="translate(-39.73 -257.8)"/><path class="cls-1" d="M268.6,260.86v-.74h2l.11.92a2.21,2.21,0,0,1,.67-.76,1.55,1.55,0,0,1,.91-.28l.28,0,.22,0-.15,1.07-.66,0a1.32,1.32,0,0,0-.77.21,1.38,1.38,0,0,0-.48.6v3.64l1,.16v.74H268.6v-.74l1-.16V261Z" transform="translate(-39.73 -257.8)"/><path class="cls-1" d="M275.84,260.86l-.76.12,1.31,3.61.11.46h0l.11-.46L277.9,261l-.77-.12v-.74h2.45v.74l-.52.09-2.13,5.51h-.87l-2.15-5.51-.52-.09v-.74h2.45Z" transform="translate(-39.73 -257.8)"/><path class="cls-1" d="M283.18,266.57a2.67,2.67,0,0,1-2.11-.88,3.32,3.32,0,0,1-.78-2.29v-.26a3.25,3.25,0,0,1,.81-2.25A2.48,2.48,0,0,1,283,260a2.4,2.4,0,0,1,1.94.77,3.07,3.07,0,0,1,.66,2.06v.72h-4.11l0,0a2.51,2.51,0,0,0,.46,1.5,1.47,1.47,0,0,0,1.25.59,2.9,2.9,0,0,0,1-.17A2.36,2.36,0,0,0,285,265l.45.75a2.77,2.77,0,0,1-.9.55A3.59,3.59,0,0,1,283.18,266.57ZM283,260.9a1.25,1.25,0,0,0-1,.49,2.32,2.32,0,0,0-.5,1.23v0h2.92v-.15a1.77,1.77,0,0,0-.36-1.14A1.29,1.29,0,0,0,283,260.9Z" transform="translate(-39.73 -257.8)"/><path class="cls-1" d="M286.74,260.86v-.74h2l.11.92a2.21,2.21,0,0,1,.67-.76,1.55,1.55,0,0,1,.91-.28l.28,0,.22,0-.15,1.07-.66,0a1.32,1.32,0,0,0-.77.21,1.38,1.38,0,0,0-.48.6v3.64l1,.16v.74h-3.06v-.74l1-.16V261Z" transform="translate(-39.73 -257.8)"/><path class="cls-1" d="M126.79,315.54a3.27,3.27,0,0,1,2.14.62,2.15,2.15,0,0,1,.74,1.75,1.84,1.84,0,0,1-.35,1.1,2.29,2.29,0,0,1-1,.76,1.74,1.74,0,0,1,1,.74,2.44,2.44,0,0,1,.31,1.27v.69a1.29,1.29,0,0,0,.1.58.42.42,0,0,0,.33.22l.28,0v.76h-.62a1,1,0,0,1-1-.47,2.15,2.15,0,0,1-.28-1.14v-.66a1.55,1.55,0,0,0-.4-1.12,1.43,1.43,0,0,0-1.08-.42h-1.85v2.91l1,.16v.74H123v-.74l1-.16v-6.72l-1-.16v-.74h3.74Zm-1.63,3.81h1.52a2.17,2.17,0,0,0,1.41-.37,1.33,1.33,0,0,0,.44-1.08,1.39,1.39,0,0,0-.42-1.07,1.87,1.87,0,0,0-1.31-.39h-1.63Z" transform="translate(-39.73 -257.8)"/><path class="cls-1" d="M134.16,324.19a2.67,2.67,0,0,1-2.11-.88,3.32,3.32,0,0,1-.78-2.29v-.26a3.25,3.25,0,0,1,.81-2.25,2.48,2.48,0,0,1,1.91-.9,2.4,2.4,0,0,1,1.94.77,3.07,3.07,0,0,1,.66,2.06v.72h-4.11l0,0a2.51,2.51,0,0,0,.46,1.5,1.47,1.47,0,0,0,1.25.59,2.9,2.9,0,0,0,1-.17,2.36,2.36,0,0,0,.76-.46l.45.75a2.77,2.77,0,0,1-.9.55A3.59,3.59,0,0,1,134.16,324.19Zm-.18-5.67a1.25,1.25,0,0,0-1,.49,2.32,2.32,0,0,0-.5,1.23v0h2.92v-.15a1.77,1.77,0,0,0-.36-1.14A1.29,1.29,0,0,0,134,318.52Z" transform="translate(-39.73 -257.8)"/><path class="cls-1" d="M142.57,319.72h-.87l-.19-.76a1.56,1.56,0,0,0-.53-.32,2,2,0,0,0-.72-.12,1.33,1.33,0,0,0-.91.27.85.85,0,0,0-.3.65.73.73,0,0,0,.26.59,2.73,2.73,0,0,0,1.07.39,4.62,4.62,0,0,1,1.79.7,1.41,1.41,0,0,1,.59,1.19,1.64,1.64,0,0,1-.68,1.37,2.86,2.86,0,0,1-1.78.52A4.64,4.64,0,0,1,139,324a3.45,3.45,0,0,1-1-.48v-1.45h.87l.22.85a1.21,1.21,0,0,0,.54.26,3,3,0,0,0,.7.08,1.63,1.63,0,0,0,1-.25.77.77,0,0,0,.35-.65.79.79,0,0,0-.29-.63,2.73,2.73,0,0,0-1.1-.43,4.61,4.61,0,0,1-1.74-.69,1.38,1.38,0,0,1-.59-1.17,1.66,1.66,0,0,1,.66-1.32,2.6,2.6,0,0,1,1.71-.54,4.16,4.16,0,0,1,1.29.19,2.7,2.7,0,0,1,1,.52Z" transform="translate(-39.73 -257.8)"/><path class="cls-1" d="M143.7,325.76l1-.16v-7l-1-.16v-.74h1.95l.11.77a2.13,2.13,0,0,1,.77-.66,2.31,2.31,0,0,1,1.05-.23,2.11,2.11,0,0,1,1.83.93,4.23,4.23,0,0,1,.65,2.47v.12a3.49,3.49,0,0,1-.66,2.21,2.17,2.17,0,0,1-1.81.84,2.52,2.52,0,0,1-1-.2,2,2,0,0,1-.75-.58v2.19l1,.16v.74H143.7Zm5.2-4.75a3.37,3.37,0,0,0-.42-1.78,1.38,1.38,0,0,0-1.25-.69,1.54,1.54,0,0,0-.84.22,1.68,1.68,0,0,0-.57.61v3.09a1.51,1.51,0,0,0,1.42.82,1.42,1.42,0,0,0,1.24-.6,2.63,2.63,0,0,0,.42-1.55Z" transform="translate(-39.73 -257.8)"/><path class="cls-1" d="M151.11,320.84a3.49,3.49,0,0,1,.76-2.32,2.82,2.82,0,0,1,4.15,0,3.48,3.48,0,0,1,.76,2.32V321a3.47,3.47,0,0,1-.76,2.32,2.83,2.83,0,0,1-4.15,0,3.48,3.48,0,0,1-.76-2.32Zm1.15.13a3,3,0,0,0,.42,1.66,1.53,1.53,0,0,0,2.51,0,3,3,0,0,0,.43-1.66v-.13a3,3,0,0,0-.43-1.66,1.52,1.52,0,0,0-2.51,0,3,3,0,0,0-.42,1.66Z" transform="translate(-39.73 -257.8)"/><path class="cls-1" d="M157.66,323.33l1-.16v-4.53l-1-.16v-.74h2l.08.94a2.3,2.3,0,0,1,.79-.78,2.12,2.12,0,0,1,1.09-.28,2.07,2.07,0,0,1,1.59.6,2.64,2.64,0,0,1,.56,1.85v3.1l1,.16v.74h-3.06v-.74l1-.16v-3.08a1.71,1.71,0,0,0-.33-1.19,1.33,1.33,0,0,0-1-.35,1.63,1.63,0,0,0-.88.24,1.75,1.75,0,0,0-.61.66v3.72l1,.16v.74h-3.06Z" transform="translate(-39.73 -257.8)"/><path class="cls-1" d="M170.41,319.72h-.87l-.19-.76a1.56,1.56,0,0,0-.53-.32,2,2,0,0,0-.72-.12,1.33,1.33,0,0,0-.91.27.85.85,0,0,0-.3.65.73.73,0,0,0,.26.59,2.73,2.73,0,0,0,1.07.39,4.62,4.62,0,0,1,1.79.7,1.41,1.41,0,0,1,.59,1.19,1.64,1.64,0,0,1-.68,1.37,2.86,2.86,0,0,1-1.78.52,4.64,4.64,0,0,1-1.29-.17,3.45,3.45,0,0,1-1-.48v-1.45h.87l.22.85a1.21,1.21,0,0,0,.54.26,3,3,0,0,0,.7.08,1.63,1.63,0,0,0,1-.25.77.77,0,0,0,.35-.65.79.79,0,0,0-.29-.63,2.73,2.73,0,0,0-1.1-.43,4.61,4.61,0,0,1-1.74-.69,1.38,1.38,0,0,1-.59-1.17,1.66,1.66,0,0,1,.66-1.32,2.6,2.6,0,0,1,1.71-.54,4.16,4.16,0,0,1,1.29.19,2.7,2.7,0,0,1,1,.52Z" transform="translate(-39.73 -257.8)"/><path class="cls-1" d="M174.57,324.19a2.67,2.67,0,0,1-2.11-.88,3.32,3.32,0,0,1-.78-2.29v-.26a3.25,3.25,0,0,1,.81-2.25,2.48,2.48,0,0,1,1.91-.9,2.4,2.4,0,0,1,1.94.77,3.07,3.07,0,0,1,.66,2.06v.72h-4.11l0,0a2.51,2.51,0,0,0,.46,1.5,1.47,1.47,0,0,0,1.25.59,2.9,2.9,0,0,0,1-.17,2.36,2.36,0,0,0,.76-.46l.45.75a2.77,2.77,0,0,1-.9.55A3.59,3.59,0,0,1,174.57,324.19Zm-.18-5.67a1.25,1.25,0,0,0-1,.49,2.32,2.32,0,0,0-.5,1.23v0h2.92v-.15a1.77,1.77,0,0,0-.36-1.14A1.29,1.29,0,0,0,174.39,318.52Z" transform="translate(-39.73 -257.8)"/><path class="cls-1" d="M39.73,313.85H98.48V278.51H39.73Zm42.35-20.49h1v-1.53h1.15v1.53h1.2v.86h-1.2v3.85a.86.86,0,0,0,.18.63.67.67,0,0,0,.49.18l.34,0,.32-.06.16.79a1.48,1.48,0,0,1-.48.17,3,3,0,0,1-.63.07,1.49,1.49,0,0,1-1.12-.42,1.84,1.84,0,0,1-.42-1.33v-3.85h-1ZM74.33,299l1-.16v-4.53l-1-.16v-.74h2l.08.94a2.3,2.3,0,0,1,.79-.78,2.12,2.12,0,0,1,1.09-.28,2.07,2.07,0,0,1,1.59.6,2.64,2.64,0,0,1,.56,1.85v3.1l1,.16v.74H78.32V299l1-.16v-3.08a1.71,1.71,0,0,0-.33-1.19,1.33,1.33,0,0,0-1-.35,1.63,1.63,0,0,0-.88.24,1.75,1.75,0,0,0-.61.66v3.72l1,.16v.74H74.33Zm-6.28-2.57a3.25,3.25,0,0,1,.81-2.25,2.48,2.48,0,0,1,1.91-.9,2.4,2.4,0,0,1,1.94.77,3.07,3.07,0,0,1,.66,2.06v.72H69.25l0,0a2.51,2.51,0,0,0,.46,1.5,1.47,1.47,0,0,0,1.25.59,2.9,2.9,0,0,0,1-.17,2.36,2.36,0,0,0,.76-.46l.45.75a2.77,2.77,0,0,1-.9.55,3.59,3.59,0,0,1-1.34.23,2.67,2.67,0,0,1-2.11-.88,3.32,3.32,0,0,1-.78-2.29Zm-3-5.84h1.15v1.18H65.06Zm-1,8.4,1-.16v-4.53l-1-.16v-.74h2.11v5.44l1,.16v.74H64.1Zm-3.94,0,1-.16v-7.33l-1-.16v-.74h2.11v8.24l1,.16v.74H60.17Zm-7.69-3.59a4.61,4.61,0,0,1,1-3.1A3.44,3.44,0,0,1,56.28,291a3.7,3.7,0,0,1,1.71.38,3.29,3.29,0,0,1,1.11.85v1.52h-.81l-.22-1.21a2.23,2.23,0,0,0-.69-.45,2.47,2.47,0,0,0-1-.18,2.39,2.39,0,0,0-2,1,4,4,0,0,0-.71,2.45v.13a4.08,4.08,0,0,0,.7,2.45,2.26,2.26,0,0,0,1.94,1,2.93,2.93,0,0,0,1.05-.18,2,2,0,0,0,.73-.45l.22-1.21h.81v1.52a3.2,3.2,0,0,1-1.11.85,3.75,3.75,0,0,1-1.71.37,3.45,3.45,0,0,1-2.73-1.23,4.55,4.55,0,0,1-1.07-3.09Z" transform="translate(-39.73 -257.8)"/><path class="cls-1" d="M72.21,295.9v-.15a1.77,1.77,0,0,0-.36-1.14,1.29,1.29,0,0,0-1.08-.46,1.25,1.25,0,0,0-1,.49,2.32,2.32,0,0,0-.5,1.23v0Z" transform="translate(-39.73 -257.8)"/><polygon class="cls-1" points="179.97 74.61 179.93 74.61 178.58 78.27 181.29 78.27 179.97 74.61"/><path class="cls-1" d="M195.56,397h58.75V278.51H195.56Zm36.51-58.31,1-.16v-6.72l-1-.16v-.74h3.06v.74l-1,.16v6.72l1,.16v.74h-3.06Zm-7.62,0,1-.16v-6.72l-1-.16v-.74h3.92a3,3,0,0,1,2.12.7,2.65,2.65,0,0,1,0,3.71,3,3,0,0,1-2.12.7h-1.81v2.52l1,.16v.74h-3.06Zm-8.88,0,.63-.09,3-7.71h1l2.93,7.71.63.09v.74h-2.45v-.74l.64-.11-.56-1.57H218l-.58,1.57.64.11v.74h-2.44Z" transform="translate(-39.73 -257.8)"/><path class="cls-1" d="M229.68,334.66a1.66,1.66,0,0,0,.43-1.17,1.7,1.7,0,0,0-.43-1.18,1.67,1.67,0,0,0-1.3-.47h-1.81v3.3h1.81A1.68,1.68,0,0,0,229.68,334.66Z" transform="translate(-39.73 -257.8)"/><path class="cls-1" d="M39.73,397H98.48V361.68H39.73Zm42.35-20.49h1V375h1.15v1.53h1.2v.86h-1.2v3.85a.86.86,0,0,0,.18.63.67.67,0,0,0,.49.18l.34,0,.32-.06.16.79a1.48,1.48,0,0,1-.48.17,3,3,0,0,1-.63.07,1.49,1.49,0,0,1-1.12-.42,1.84,1.84,0,0,1-.42-1.33v-3.85h-1Zm-7.75,5.6,1-.16v-4.53l-1-.16v-.74h2l.08.94a2.3,2.3,0,0,1,.79-.78,2.12,2.12,0,0,1,1.09-.28,2.07,2.07,0,0,1,1.59.6,2.64,2.64,0,0,1,.56,1.85V382l1,.16v.74H78.32v-.74l1-.16V378.9a1.71,1.71,0,0,0-.33-1.19,1.33,1.33,0,0,0-1-.35,1.63,1.63,0,0,0-.88.24,1.75,1.75,0,0,0-.61.66V382l1,.16v.74H74.33Zm-6.28-2.57a3.25,3.25,0,0,1,.81-2.25,2.48,2.48,0,0,1,1.91-.9,2.4,2.4,0,0,1,1.94.77,3.07,3.07,0,0,1,.66,2.06V380H69.25l0,0a2.51,2.51,0,0,0,.46,1.5,1.47,1.47,0,0,0,1.25.59,2.9,2.9,0,0,0,1-.17,2.36,2.36,0,0,0,.76-.46l.45.75a2.77,2.77,0,0,1-.9.55,3.59,3.59,0,0,1-1.34.23,2.67,2.67,0,0,1-2.11-.88,3.32,3.32,0,0,1-.78-2.29Zm-3-5.84h1.15v1.18H65.06Zm-1,8.4,1-.16v-4.53l-1-.16v-.74h2.11V382l1,.16v.74H64.1Zm-3.94,0,1-.16v-7.33l-1-.16v-.74h2.11V382l1,.16v.74H60.17Zm-7.69-3.59a4.61,4.61,0,0,1,1-3.1,3.44,3.44,0,0,1,2.75-1.23,3.7,3.7,0,0,1,1.71.38,3.29,3.29,0,0,1,1.11.85V377h-.81l-.22-1.21a2.23,2.23,0,0,0-.69-.45,2.47,2.47,0,0,0-1-.18,2.39,2.39,0,0,0-2,1,4,4,0,0,0-.71,2.45v.13a4.08,4.08,0,0,0,.7,2.45,2.26,2.26,0,0,0,1.94,1,2.93,2.93,0,0,0,1.05-.18,2,2,0,0,0,.73-.45l.22-1.21h.81v1.52a3.2,3.2,0,0,1-1.11.85,3.75,3.75,0,0,1-1.71.37,3.45,3.45,0,0,1-2.73-1.23,4.55,4.55,0,0,1-1.07-3.09Z" transform="translate(-39.73 -257.8)"/><path class="cls-1" d="M72.21,379.07v-.15a1.77,1.77,0,0,0-.36-1.14,1.29,1.29,0,0,0-1.08-.46,1.25,1.25,0,0,0-1,.49,2.32,2.32,0,0,0-.5,1.23v0Z" transform="translate(-39.73 -257.8)"/><path class="cls-1" d="M331.68,294.15a1.39,1.39,0,0,0-1.25.66,3,3,0,0,0-.42,1.66v.13a3,3,0,0,0,.42,1.66,1.53,1.53,0,0,0,2.51,0,3,3,0,0,0,.43-1.66v-.13a3,3,0,0,0-.43-1.66A1.4,1.4,0,0,0,331.68,294.15Z" transform="translate(-39.73 -257.8)"/><path class="cls-1" d="M289.1,278.51v35.34h58.75V278.51Zm20.27,13.41-1,.16v6.72l1,.16v.74h-3.06V299l1-.16v-2.47l.11-3.46h0l-2.76,6.84h-.77l-2.76-6.83h0l.12,3.45v2.47l1,.16v.74H299V299l1-.16v-6.72l-1-.16v-.74h2.43l2.72,6.93h0l2.71-6.93h2.44Zm6.25,4.89h-4.11l0,0a2.51,2.51,0,0,0,.46,1.5,1.47,1.47,0,0,0,1.25.59,2.9,2.9,0,0,0,1-.17,2.36,2.36,0,0,0,.76-.46l.45.75a2.77,2.77,0,0,1-.9.55,3.59,3.59,0,0,1-1.34.23,2.67,2.67,0,0,1-2.11-.88,3.32,3.32,0,0,1-.78-2.29v-.26a3.25,3.25,0,0,1,.81-2.25,2.48,2.48,0,0,1,1.91-.9A2.4,2.4,0,0,1,315,294a3.07,3.07,0,0,1,.66,2.06Zm4.17,3a3,3,0,0,1-.63.07,1.49,1.49,0,0,1-1.12-.42,1.85,1.85,0,0,1-.42-1.33v-3.85h-1v-.86h1v-1.53h1.15v1.53H320v.86h-1.2v3.85a.86.86,0,0,0,.18.63.67.67,0,0,0,.49.18l.34,0,.32-.06.16.79A1.48,1.48,0,0,1,319.79,299.76Zm8.27-.06H325V299l1-.16v-3.08a1.7,1.7,0,0,0-.34-1.16,1.28,1.28,0,0,0-1-.37,1.69,1.69,0,0,0-.86.23,1.88,1.88,0,0,0-.64.61v3.78l1,.16v.74H321V299l1-.16v-7.33l-1-.16v-.74h2.11v3.64a2.32,2.32,0,0,1,.8-.71,2.21,2.21,0,0,1,1.05-.25,2,2,0,0,1,1.58.61,2.69,2.69,0,0,1,.56,1.88v3.07l1,.16Zm6.46-3.1a3.47,3.47,0,0,1-.76,2.32,2.83,2.83,0,0,1-4.15,0,3.48,3.48,0,0,1-.76-2.32v-.13a3.49,3.49,0,0,1,.76-2.32,2.82,2.82,0,0,1,4.15,0,3.48,3.48,0,0,1,.76,2.32Zm7.38,3.1h-2l-.09-.76a2,2,0,0,1-.76.66,2.31,2.31,0,0,1-1,.22,2.17,2.17,0,0,1-1.81-.84,3.51,3.51,0,0,1-.65-2.21v-.12a4.23,4.23,0,0,1,.65-2.47,2.1,2.1,0,0,1,1.83-.94,2.26,2.26,0,0,1,1,.21,2.05,2.05,0,0,1,.74.6v-2.58l-1-.16v-.74h2.11v8.24l1,.16Z" transform="translate(-39.73 -257.8)"/><path class="cls-1" d="M313,294.15a1.25,1.25,0,0,0-1,.49,2.32,2.32,0,0,0-.5,1.23v0h2.92v-.15a1.77,1.77,0,0,0-.36-1.14A1.29,1.29,0,0,0,313,294.15Z" transform="translate(-39.73 -257.8)"/><path class="cls-1" d="M339.21,294.42a1.53,1.53,0,0,0-.86-.23,1.31,1.31,0,0,0-1.22.69,3.54,3.54,0,0,0-.4,1.78v.12a2.69,2.69,0,0,0,.39,1.54,1.36,1.36,0,0,0,1.21.58,1.53,1.53,0,0,0,.87-.23,1.79,1.79,0,0,0,.58-.66v-2.94A1.78,1.78,0,0,0,339.21,294.42Z" transform="translate(-39.73 -257.8)"/><path class="cls-1" d="M338.34,382.06a1.53,1.53,0,0,0,.87-.23,1.79,1.79,0,0,0,.58-.66v-2.94a1.78,1.78,0,0,0-.58-.63,1.53,1.53,0,0,0-.86-.23,1.31,1.31,0,0,0-1.22.69,3.54,3.54,0,0,0-.4,1.78v.12a2.69,2.69,0,0,0,.39,1.54A1.36,1.36,0,0,0,338.34,382.06Z" transform="translate(-39.73 -257.8)"/><path class="cls-1" d="M289.1,397h58.75V361.68H289.1Zm46.47-17.2a4.23,4.23,0,0,1,.65-2.47,2.1,2.1,0,0,1,1.83-.94,2.26,2.26,0,0,1,1,.21,2.05,2.05,0,0,1,.74.6v-2.58l-1-.16v-.74h2.11V382l1,.16v.74h-2l-.09-.76a2,2,0,0,1-.76.66,2.31,2.31,0,0,1-1,.22,2.17,2.17,0,0,1-1.81-.84,3.51,3.51,0,0,1-.65-2.21Zm-6.73-.18a3.49,3.49,0,0,1,.76-2.32,2.82,2.82,0,0,1,4.15,0,3.48,3.48,0,0,1,.76,2.32v.13a3.47,3.47,0,0,1-.76,2.32,2.83,2.83,0,0,1-4.15,0,3.48,3.48,0,0,1-.76-2.32ZM321,382.14l1-.16v-7.33l-1-.16v-.74h2.11v3.64a2.32,2.32,0,0,1,.8-.71,2.21,2.21,0,0,1,1.05-.25,2,2,0,0,1,1.58.61,2.69,2.69,0,0,1,.56,1.88V382l1,.16v.74H325v-.74l1-.16v-3.08a1.7,1.7,0,0,0-.34-1.16,1.28,1.28,0,0,0-1-.37,1.69,1.69,0,0,0-.86.23,1.88,1.88,0,0,0-.64.61V382l1,.16v.74H321Zm-4.38-5.6h1V375h1.15v1.53H320v.86h-1.2v3.85a.86.86,0,0,0,.18.63.67.67,0,0,0,.49.18l.34,0,.32-.06.16.79a1.48,1.48,0,0,1-.48.17,3,3,0,0,1-.63.07,1.49,1.49,0,0,1-1.12-.42,1.84,1.84,0,0,1-.42-1.33v-3.85h-1Zm-6.3,3a3.25,3.25,0,0,1,.81-2.25,2.48,2.48,0,0,1,1.91-.9,2.4,2.4,0,0,1,1.94.77,3.07,3.07,0,0,1,.66,2.06V380h-4.11l0,0a2.51,2.51,0,0,0,.46,1.5,1.47,1.47,0,0,0,1.25.59,2.9,2.9,0,0,0,1-.17,2.36,2.36,0,0,0,.76-.46l.45.75a2.77,2.77,0,0,1-.9.55,3.59,3.59,0,0,1-1.34.23,2.67,2.67,0,0,1-2.11-.88,3.32,3.32,0,0,1-.78-2.29ZM299,382.14l1-.16v-6.72l-1-.16v-.74h2.43l2.72,6.93h0l2.71-6.93h2.44v.74l-1,.16V382l1,.16v.74h-3.06v-.74l1-.16V379.5l.11-3.46h0l-2.76,6.84h-.77L301.06,376h0l.12,3.45V382l1,.16v.74H299Z" transform="translate(-39.73 -257.8)"/><path class="cls-1" d="M331.69,382.09a1.4,1.4,0,0,0,1.25-.66,3,3,0,0,0,.43-1.66v-.13a3,3,0,0,0-.43-1.66,1.52,1.52,0,0,0-2.51,0,3,3,0,0,0-.42,1.66v.13a3,3,0,0,0,.42,1.66A1.41,1.41,0,0,0,331.69,382.09Z" transform="translate(-39.73 -257.8)"/><path class="cls-1" d="M314.47,379.07v-.15a1.77,1.77,0,0,0-.36-1.14,1.29,1.29,0,0,0-1.08-.46,1.25,1.25,0,0,0-1,.49,2.32,2.32,0,0,0-.5,1.23v0Z" transform="translate(-39.73 -257.8)"/><rect class="cls-1" x="146.66" y="1.63" width="1" height="6"/><path class="cls-1" d="M187.39,399h-1V387.85h1Zm0-22.26h-1V365.59h1Zm0-22.26h-1V343.33h1Zm0-22.26h-1V321.07h1Zm0-22.26h-1V298.81h1Zm0-22.26h-1V276.55h1Z" transform="translate(-39.73 -257.8)"/><rect class="cls-1" x="146.66" y="152.31" width="1" height="6"/><polygon class="cls-1" points="75.96 44.02 75.96 60.99 67.47 52.5 75.96 44.02"/><path class="cls-1" d="M116.19,320l-9.69-9.69,9.69-9.69Zm-8.28-9.69,7.28,7.28V303Z" transform="translate(-39.73 -257.8)"/><polygon class="cls-1" points="67.47 39.8 67.47 22.82 75.96 31.31 67.47 39.8"/><path class="cls-1" d="M106.7,298.8V279.41l9.69,9.69Zm1-17v14.56l7.28-7.28Z" transform="translate(-39.73 -257.8)"/><rect class="cls-1" x="58.99" y="52" width="96.85" height="1"/><rect class="cls-1" x="58.99" y="30.81" width="96.85" height="1"/><path class="cls-1" d="M126.79,357.66a3.27,3.27,0,0,1,2.14.62,2.15,2.15,0,0,1,.74,1.75,1.84,1.84,0,0,1-.35,1.1,2.29,2.29,0,0,1-1,.76,1.74,1.74,0,0,1,1,.74,2.44,2.44,0,0,1,.31,1.27v.69a1.29,1.29,0,0,0,.1.58.42.42,0,0,0,.33.22l.28,0v.76h-.62a1,1,0,0,1-1-.47,2.15,2.15,0,0,1-.28-1.14v-.66a1.55,1.55,0,0,0-.4-1.12,1.43,1.43,0,0,0-1.08-.42h-1.85v2.91l1,.16v.74H123v-.74l1-.16v-6.72l-1-.16v-.74h3.74Zm-1.63,3.81h1.52a2.17,2.17,0,0,0,1.41-.37,1.33,1.33,0,0,0,.44-1.08,1.39,1.39,0,0,0-.42-1.07,1.87,1.87,0,0,0-1.31-.39h-1.63Z" transform="translate(-39.73 -257.8)"/><path class="cls-1" d="M134.16,366.31a2.67,2.67,0,0,1-2.11-.88,3.32,3.32,0,0,1-.78-2.29v-.26a3.25,3.25,0,0,1,.81-2.25,2.48,2.48,0,0,1,1.91-.9,2.4,2.4,0,0,1,1.94.77,3.07,3.07,0,0,1,.66,2.06v.72h-4.11l0,0a2.51,2.51,0,0,0,.46,1.5,1.47,1.47,0,0,0,1.25.59,2.9,2.9,0,0,0,1-.17,2.36,2.36,0,0,0,.76-.46l.45.75a2.77,2.77,0,0,1-.9.55A3.59,3.59,0,0,1,134.16,366.31Zm-.18-5.67a1.25,1.25,0,0,0-1,.49,2.32,2.32,0,0,0-.5,1.23v0h2.92v-.15a1.77,1.77,0,0,0-.36-1.14A1.29,1.29,0,0,0,134,360.64Z" transform="translate(-39.73 -257.8)"/><path class="cls-1" d="M137.72,363.13a4.23,4.23,0,0,1,.65-2.47,2.1,2.1,0,0,1,1.83-.94,2.26,2.26,0,0,1,1,.21,2,2,0,0,1,.74.61l.09-.7h1v7.87l1,.16v.74h-3.06v-.74l1-.16v-2.13a2,2,0,0,1-.72.54,2.37,2.37,0,0,1-1,.18,2.17,2.17,0,0,1-1.81-.84,3.51,3.51,0,0,1-.65-2.21Zm1.15.12a2.78,2.78,0,0,0,.39,1.56,1.35,1.35,0,0,0,1.21.59,1.51,1.51,0,0,0,.82-.21,1.72,1.72,0,0,0,.57-.6v-3.18a1.79,1.79,0,0,0-.57-.57,1.49,1.49,0,0,0-.8-.21,1.31,1.31,0,0,0-1.22.7,3.62,3.62,0,0,0-.4,1.8Z" transform="translate(-39.73 -257.8)"/><path class="cls-1" d="M149,365.25a2.14,2.14,0,0,1-.77.79,2.12,2.12,0,0,1-1.09.28,2,2,0,0,1-1.61-.66,3.07,3.07,0,0,1-.58-2.06v-2.83l-.73-.16v-.74h1.88v3.75a2.36,2.36,0,0,0,.3,1.39,1.11,1.11,0,0,0,.93.38,1.9,1.9,0,0,0,1-.25,1.56,1.56,0,0,0,.61-.71v-3.66l-.85-.16v-.74h2v5.44l.73.16v.74H149.1Z" transform="translate(-39.73 -257.8)"/><path class="cls-1" d="M154.67,366.31a2.67,2.67,0,0,1-2.11-.88,3.32,3.32,0,0,1-.78-2.29v-.26a3.25,3.25,0,0,1,.81-2.25,2.48,2.48,0,0,1,1.91-.9,2.4,2.4,0,0,1,1.94.77,3.07,3.07,0,0,1,.66,2.06v.72H153l0,0a2.51,2.51,0,0,0,.46,1.5,1.47,1.47,0,0,0,1.25.59,2.9,2.9,0,0,0,1-.17,2.36,2.36,0,0,0,.76-.46l.45.75a2.77,2.77,0,0,1-.9.55A3.59,3.59,0,0,1,154.67,366.31Zm-.18-5.67a1.25,1.25,0,0,0-1,.49,2.32,2.32,0,0,0-.5,1.23v0h2.92v-.15a1.77,1.77,0,0,0-.36-1.14A1.29,1.29,0,0,0,154.49,360.64Z" transform="translate(-39.73 -257.8)"/><path class="cls-1" d="M163.08,361.84h-.87l-.19-.76a1.56,1.56,0,0,0-.53-.32,2,2,0,0,0-.72-.12,1.33,1.33,0,0,0-.91.27.85.85,0,0,0-.3.65.73.73,0,0,0,.26.59,2.73,2.73,0,0,0,1.07.39,4.62,4.62,0,0,1,1.79.7,1.41,1.41,0,0,1,.59,1.19,1.64,1.64,0,0,1-.68,1.37,2.86,2.86,0,0,1-1.78.52,4.64,4.64,0,0,1-1.29-.17,3.45,3.45,0,0,1-1-.48v-1.45h.87l.22.85a1.21,1.21,0,0,0,.54.26,3,3,0,0,0,.7.08,1.63,1.63,0,0,0,1-.25.77.77,0,0,0,.35-.65.79.79,0,0,0-.29-.63,2.73,2.73,0,0,0-1.1-.43,4.61,4.61,0,0,1-1.74-.69,1.38,1.38,0,0,1-.59-1.17,1.66,1.66,0,0,1,.66-1.32,2.6,2.6,0,0,1,1.71-.54,4.16,4.16,0,0,1,1.29.19,2.7,2.7,0,0,1,1,.52Z" transform="translate(-39.73 -257.8)"/><path class="cls-1" d="M166.36,358.32v1.53h1.2v.86h-1.2v3.85a.86.86,0,0,0,.18.63.67.67,0,0,0,.49.18l.34,0,.32-.06.16.79a1.48,1.48,0,0,1-.48.17,3,3,0,0,1-.63.07,1.49,1.49,0,0,1-1.12-.42,1.84,1.84,0,0,1-.42-1.33V360.7h-1v-.86h1v-1.53Z" transform="translate(-39.73 -257.8)"/><path class="cls-1" d="M126.79,396.07a3.27,3.27,0,0,1,2.14.62,2.15,2.15,0,0,1,.74,1.75,1.84,1.84,0,0,1-.35,1.1,2.29,2.29,0,0,1-1,.76,1.74,1.74,0,0,1,1,.74,2.44,2.44,0,0,1,.31,1.27V403a1.29,1.29,0,0,0,.1.58.42.42,0,0,0,.33.22l.28,0v.76h-.62a1,1,0,0,1-1-.47,2.15,2.15,0,0,1-.28-1.14v-.66a1.55,1.55,0,0,0-.4-1.12,1.43,1.43,0,0,0-1.08-.42h-1.85v2.91l1,.16v.74H123v-.74l1-.16V397l-1-.16v-.74h3.74Zm-1.63,3.81h1.52a2.17,2.17,0,0,0,1.41-.37,1.33,1.33,0,0,0,.44-1.08,1.39,1.39,0,0,0-.42-1.07,1.87,1.87,0,0,0-1.31-.39h-1.63Z" transform="translate(-39.73 -257.8)"/><path class="cls-1" d="M134.16,404.72a2.67,2.67,0,0,1-2.11-.88,3.32,3.32,0,0,1-.78-2.29v-.26a3.25,3.25,0,0,1,.81-2.25,2.48,2.48,0,0,1,1.91-.9,2.4,2.4,0,0,1,1.94.77,3.07,3.07,0,0,1,.66,2.06v.72h-4.11l0,0a2.51,2.51,0,0,0,.46,1.5,1.47,1.47,0,0,0,1.25.59,2.9,2.9,0,0,0,1-.17,2.36,2.36,0,0,0,.76-.46l.45.75a2.77,2.77,0,0,1-.9.55A3.59,3.59,0,0,1,134.16,404.72ZM134,399a1.25,1.25,0,0,0-1,.49,2.32,2.32,0,0,0-.5,1.23v0h2.92v-.15a1.77,1.77,0,0,0-.36-1.14A1.29,1.29,0,0,0,134,399Z" transform="translate(-39.73 -257.8)"/><path class="cls-1" d="M142.57,400.25h-.87l-.19-.76a1.56,1.56,0,0,0-.53-.32,2,2,0,0,0-.72-.12,1.33,1.33,0,0,0-.91.27.85.85,0,0,0-.3.65.73.73,0,0,0,.26.59,2.73,2.73,0,0,0,1.07.39,4.62,4.62,0,0,1,1.79.7,1.41,1.41,0,0,1,.59,1.19,1.64,1.64,0,0,1-.68,1.37,2.86,2.86,0,0,1-1.78.52,4.64,4.64,0,0,1-1.29-.17,3.45,3.45,0,0,1-1-.48v-1.45h.87l.22.85a1.21,1.21,0,0,0,.54.26,3,3,0,0,0,.7.08,1.63,1.63,0,0,0,1-.25.77.77,0,0,0,.35-.65.79.79,0,0,0-.29-.63,2.73,2.73,0,0,0-1.1-.43,4.61,4.61,0,0,1-1.74-.69,1.38,1.38,0,0,1-.59-1.17,1.66,1.66,0,0,1,.66-1.32,2.6,2.6,0,0,1,1.71-.54,4.16,4.16,0,0,1,1.29.19,2.7,2.7,0,0,1,1,.52Z" transform="translate(-39.73 -257.8)"/><path class="cls-1" d="M143.7,406.29l1-.16v-7l-1-.16v-.74h1.95l.11.77a2.13,2.13,0,0,1,.77-.66,2.31,2.31,0,0,1,1.05-.23,2.11,2.11,0,0,1,1.83.93,4.23,4.23,0,0,1,.65,2.47v.12a3.49,3.49,0,0,1-.66,2.21,2.17,2.17,0,0,1-1.81.84,2.52,2.52,0,0,1-1-.2,2,2,0,0,1-.75-.58v2.19l1,.16V407H143.7Zm5.2-4.75a3.37,3.37,0,0,0-.42-1.78,1.38,1.38,0,0,0-1.25-.69,1.54,1.54,0,0,0-.84.22,1.68,1.68,0,0,0-.57.61V403a1.51,1.51,0,0,0,1.42.82,1.42,1.42,0,0,0,1.24-.6,2.63,2.63,0,0,0,.42-1.55Z" transform="translate(-39.73 -257.8)"/><path class="cls-1" d="M151.11,401.37a3.49,3.49,0,0,1,.76-2.32,2.82,2.82,0,0,1,4.15,0,3.48,3.48,0,0,1,.76,2.32v.13a3.47,3.47,0,0,1-.76,2.32,2.83,2.83,0,0,1-4.15,0,3.48,3.48,0,0,1-.76-2.32Zm1.15.13a3,3,0,0,0,.42,1.66,1.53,1.53,0,0,0,2.51,0,3,3,0,0,0,.43-1.66v-.13a3,3,0,0,0-.43-1.66,1.52,1.52,0,0,0-2.51,0,3,3,0,0,0-.42,1.66Z" transform="translate(-39.73 -257.8)"/><path class="cls-1" d="M157.66,403.86l1-.16v-4.53l-1-.16v-.74h2l.08.94a2.3,2.3,0,0,1,.79-.78,2.12,2.12,0,0,1,1.09-.28,2.07,2.07,0,0,1,1.59.6,2.64,2.64,0,0,1,.56,1.85v3.1l1,.16v.74h-3.06v-.74l1-.16v-3.08a1.71,1.71,0,0,0-.33-1.19,1.33,1.33,0,0,0-1-.35,1.63,1.63,0,0,0-.88.24,1.75,1.75,0,0,0-.61.66v3.72l1,.16v.74h-3.06Z" transform="translate(-39.73 -257.8)"/><path class="cls-1" d="M170.41,400.25h-.87l-.19-.76a1.56,1.56,0,0,0-.53-.32,2,2,0,0,0-.72-.12,1.33,1.33,0,0,0-.91.27.85.85,0,0,0-.3.65.73.73,0,0,0,.26.59,2.73,2.73,0,0,0,1.07.39,4.62,4.62,0,0,1,1.79.7,1.41,1.41,0,0,1,.59,1.19,1.64,1.64,0,0,1-.68,1.37,2.86,2.86,0,0,1-1.78.52,4.64,4.64,0,0,1-1.29-.17,3.45,3.45,0,0,1-1-.48v-1.45h.87l.22.85a1.21,1.21,0,0,0,.54.26,3,3,0,0,0,.7.08,1.63,1.63,0,0,0,1-.25.77.77,0,0,0,.35-.65.79.79,0,0,0-.29-.63,2.73,2.73,0,0,0-1.1-.43,4.61,4.61,0,0,1-1.74-.69,1.38,1.38,0,0,1-.59-1.17,1.66,1.66,0,0,1,.66-1.32,2.6,2.6,0,0,1,1.71-.54,4.16,4.16,0,0,1,1.29.19,2.7,2.7,0,0,1,1,.52Z" transform="translate(-39.73 -257.8)"/><path class="cls-1" d="M174.57,404.72a2.67,2.67,0,0,1-2.11-.88,3.32,3.32,0,0,1-.78-2.29v-.26a3.25,3.25,0,0,1,.81-2.25,2.48,2.48,0,0,1,1.91-.9,2.4,2.4,0,0,1,1.94.77A3.07,3.07,0,0,1,177,401v.72h-4.11l0,0a2.51,2.51,0,0,0,.46,1.5,1.47,1.47,0,0,0,1.25.59,2.9,2.9,0,0,0,1-.17,2.36,2.36,0,0,0,.76-.46l.45.75a2.77,2.77,0,0,1-.9.55A3.59,3.59,0,0,1,174.57,404.72Zm-.18-5.67a1.25,1.25,0,0,0-1,.49,2.32,2.32,0,0,0-.5,1.23v0h2.92v-.15a1.77,1.77,0,0,0-.36-1.14A1.29,1.29,0,0,0,174.39,399Z" transform="translate(-39.73 -257.8)"/><polygon class="cls-1" points="75.96 124.55 75.96 141.52 67.47 133.03 75.96 124.55"/><path class="cls-1" d="M116.19,400.52l-9.69-9.69,9.69-9.69Zm-8.28-9.69,7.28,7.28V383.55Z" transform="translate(-39.73 -257.8)"/><polygon class="cls-1" points="67.47 120.33 67.47 103.35 75.96 111.84 67.47 120.33"/><path class="cls-1" d="M106.7,379.33V359.94l9.69,9.69Zm1-17v14.56l7.28-7.28Z" transform="translate(-39.73 -257.8)"/><rect class="cls-1" x="58.99" y="132.53" width="96.85" height="1"/><rect class="cls-1" x="58.99" y="111.34" width="96.85" height="1"/></svg>