<?xml version="1.0" encoding="utf-8"?>
<!-- Generator: Adobe Illustrator 20.0.0, SVG Export Plug-In . SVG Version: 6.00 Build 0)  -->
<svg version="1.1" id="Layer_1" xmlns="http://www.w3.org/2000/svg" xmlns:xlink="http://www.w3.org/1999/xlink" x="0px" y="0px"
	 viewBox="0 0 223.5 223" style="enable-background:new 0 0 223.5 223;" xml:space="preserve">
<style type="text/css">
	.st0{fill:#E69D24;}
</style>
<path class="st0" d="M45.9,46.7L45.9,46.7L43.6,53h-1.1l-2.3-6.3l0,0l0.2,3.7v1.3l0.9,0.2v1h-3.5v-1l0.9-0.2v-6.1l-0.9-0.2v-1h0.9
	h2.2l2.2,6.3h0l2.2-6.3h3.2v1l-0.9,0.2v6.1l0.9,0.2v1h-3.5v-1l0.9-0.2v-1.3L45.9,46.7z"/>
<path class="st0" d="M52.1,53.1c-0.9,0-1.6-0.3-2.2-0.9s-0.8-1.3-0.8-2.2v-0.2c0-0.9,0.3-1.7,0.8-2.3s1.2-0.9,2.1-0.9
	c0.9,0,1.5,0.3,2,0.8s0.7,1.2,0.7,2.1v0.9h-3.8l0,0c0,0.4,0.2,0.8,0.4,1s0.6,0.4,1,0.4c0.4,0,0.7,0,0.9-0.1s0.5-0.2,0.8-0.4l0.5,1.1
	c-0.3,0.2-0.6,0.4-1,0.5S52.6,53.1,52.1,53.1z M51.9,47.8c-0.3,0-0.6,0.1-0.8,0.4s-0.3,0.6-0.3,1l0,0H53V49c0-0.4-0.1-0.7-0.3-0.9
	S52.3,47.8,51.9,47.8z"/>
<path class="st0" d="M60.6,48.8h-1.1L59.3,48c-0.1-0.1-0.3-0.2-0.4-0.2s-0.4-0.1-0.6-0.1c-0.3,0-0.5,0.1-0.7,0.2s-0.3,0.3-0.3,0.5
	c0,0.2,0.1,0.4,0.3,0.5s0.5,0.2,1,0.3c0.8,0.2,1.4,0.4,1.7,0.7s0.6,0.7,0.6,1.3c0,0.6-0.2,1-0.7,1.4s-1.1,0.5-1.9,0.5
	c-0.5,0-0.9-0.1-1.3-0.2s-0.8-0.3-1.1-0.6l0-1.4h1.2l0.2,0.8c0.1,0.1,0.2,0.1,0.4,0.2s0.4,0.1,0.6,0.1c0.3,0,0.6-0.1,0.8-0.2
	s0.3-0.3,0.3-0.5c0-0.2-0.1-0.3-0.3-0.5s-0.5-0.3-1-0.4c-0.7-0.2-1.3-0.4-1.7-0.7s-0.6-0.7-0.6-1.2c0-0.5,0.2-1,0.7-1.4
	s1.1-0.6,1.9-0.6c0.5,0,1,0.1,1.4,0.2s0.8,0.3,1,0.5L60.6,48.8z"/>
<path class="st0" d="M66.8,48.8h-1.1L65.5,48c-0.1-0.1-0.3-0.2-0.4-0.2s-0.4-0.1-0.6-0.1c-0.3,0-0.5,0.1-0.7,0.2s-0.3,0.3-0.3,0.5
	c0,0.2,0.1,0.4,0.3,0.5s0.5,0.2,1,0.3c0.8,0.2,1.4,0.4,1.7,0.7s0.6,0.7,0.6,1.3c0,0.6-0.2,1-0.7,1.4s-1.1,0.5-1.9,0.5
	c-0.5,0-0.9-0.1-1.3-0.2s-0.8-0.3-1.1-0.6l0-1.4h1.2l0.2,0.8c0.1,0.1,0.2,0.1,0.4,0.2s0.4,0.1,0.6,0.1c0.3,0,0.6-0.1,0.8-0.2
	s0.3-0.3,0.3-0.5c0-0.2-0.1-0.3-0.3-0.5s-0.5-0.3-1-0.4c-0.7-0.2-1.3-0.4-1.7-0.7s-0.6-0.7-0.6-1.2c0-0.5,0.2-1,0.7-1.4
	s1.1-0.6,1.9-0.6c0.5,0,1,0.1,1.4,0.2s0.8,0.3,1,0.5L66.8,48.8z"/>
<path class="st0" d="M71.8,53c0-0.1-0.1-0.2-0.1-0.3s-0.1-0.2-0.1-0.3c-0.2,0.2-0.5,0.4-0.7,0.6s-0.6,0.2-1,0.2
	c-0.6,0-1.1-0.2-1.5-0.5s-0.5-0.8-0.5-1.4c0-0.6,0.2-1.1,0.7-1.4s1.2-0.5,2.1-0.5h0.9v-0.6c0-0.3-0.1-0.5-0.3-0.7s-0.4-0.3-0.8-0.3
	c-0.2,0-0.4,0-0.5,0.1s-0.3,0.1-0.4,0.2l-0.1,0.7h-1.3l0-1.4c0.3-0.2,0.7-0.4,1.1-0.5s0.8-0.2,1.3-0.2c0.8,0,1.4,0.2,1.9,0.6
	s0.7,0.9,0.7,1.6v2.6c0,0.1,0,0.2,0,0.3s0,0.2,0,0.2l0.5,0.1v1H71.8z M70.3,51.8c0.3,0,0.5-0.1,0.7-0.2s0.4-0.3,0.5-0.4v-1h-0.9
	c-0.4,0-0.6,0.1-0.8,0.3s-0.3,0.4-0.3,0.6c0,0.2,0.1,0.4,0.2,0.5S70.1,51.8,70.3,51.8z"/>
<path class="st0" d="M74.5,49.9c0-1,0.2-1.8,0.7-2.4s1-0.9,1.8-0.9c0.4,0,0.7,0.1,0.9,0.2s0.5,0.4,0.7,0.7l0.1-0.8h1.5v6.2
	c0,0.8-0.3,1.5-0.8,2s-1.2,0.7-2.2,0.7c-0.3,0-0.7,0-1-0.1s-0.7-0.2-1-0.4l0.3-1.2c0.3,0.1,0.5,0.2,0.8,0.3s0.6,0.1,0.9,0.1
	c0.4,0,0.7-0.1,0.9-0.4s0.3-0.6,0.3-1.1v-0.4c-0.2,0.2-0.4,0.4-0.7,0.5s-0.5,0.2-0.9,0.2c-0.8,0-1.4-0.3-1.8-0.9s-0.7-1.3-0.7-2.3
	V49.9z M76.2,50c0,0.6,0.1,1,0.3,1.3s0.5,0.5,0.9,0.5c0.3,0,0.5,0,0.7-0.1s0.3-0.2,0.4-0.4v-2.8c-0.1-0.2-0.3-0.3-0.4-0.4
	s-0.4-0.2-0.7-0.2c-0.4,0-0.7,0.2-0.9,0.6s-0.3,0.9-0.3,1.5V50z"/>
<path class="st0" d="M84.3,53.1c-0.9,0-1.6-0.3-2.2-0.9s-0.8-1.3-0.8-2.2v-0.2c0-0.9,0.3-1.7,0.8-2.3s1.2-0.9,2.1-0.9
	c0.9,0,1.5,0.3,2,0.8s0.7,1.2,0.7,2.1v0.9H83l0,0c0,0.4,0.2,0.8,0.4,1s0.6,0.4,1,0.4c0.4,0,0.7,0,0.9-0.1s0.5-0.2,0.8-0.4l0.5,1.1
	c-0.3,0.2-0.6,0.4-1,0.5S84.8,53.1,84.3,53.1z M84.1,47.8c-0.3,0-0.6,0.1-0.8,0.4s-0.3,0.6-0.3,1l0,0h2.1V49c0-0.4-0.1-0.7-0.3-0.9
	S84.5,47.8,84.1,47.8z"/>
<path class="st0" d="M92.8,48.8h-1.1L91.5,48c-0.1-0.1-0.3-0.2-0.4-0.2s-0.4-0.1-0.6-0.1c-0.3,0-0.5,0.1-0.7,0.2s-0.3,0.3-0.3,0.5
	c0,0.2,0.1,0.4,0.3,0.5s0.5,0.2,1,0.3c0.8,0.2,1.4,0.4,1.7,0.7s0.6,0.7,0.6,1.3c0,0.6-0.2,1-0.7,1.4s-1.1,0.5-1.9,0.5
	c-0.5,0-0.9-0.1-1.3-0.2s-0.8-0.3-1.1-0.6l0-1.4h1.2l0.2,0.8c0.1,0.1,0.2,0.1,0.4,0.2s0.4,0.1,0.6,0.1c0.3,0,0.6-0.1,0.8-0.2
	s0.3-0.3,0.3-0.5c0-0.2-0.1-0.3-0.3-0.5s-0.5-0.3-1-0.4c-0.7-0.2-1.3-0.4-1.7-0.7s-0.6-0.7-0.6-1.2c0-0.5,0.2-1,0.7-1.4
	s1.1-0.6,1.9-0.6c0.5,0,1,0.1,1.4,0.2s0.8,0.3,1,0.5L92.8,48.8z"/>
<path class="st0" d="M117.7,0.6c1,0,1.8,0.2,2.3,0.6s0.8,1,0.8,1.8c0,0.4-0.1,0.7-0.3,1.1s-0.5,0.5-0.9,0.7c0.5,0.1,0.9,0.3,1.2,0.7
	s0.4,0.8,0.4,1.2c0,0.8-0.3,1.4-0.8,1.9s-1.3,0.6-2.3,0.6h-4.2v-1l0.9-0.2V1.8l-0.9-0.2v-1h0.9H117.7z M116.5,4.2h1.2
	c0.5,0,0.8-0.1,1.1-0.3s0.4-0.5,0.4-0.8c0-0.4-0.1-0.7-0.4-0.9s-0.6-0.3-1.1-0.3h-1.2V4.2z M116.5,5.4v2.5h1.6c0.5,0,0.8-0.1,1-0.3
	s0.4-0.5,0.4-0.9c0-0.4-0.1-0.7-0.3-1s-0.5-0.3-1-0.3H116.5z"/>
<path class="st0" d="M122,8.1l0.8-0.2V4l-0.9-0.2v-1h2.5l0.1,0.9c0.1-0.3,0.3-0.6,0.6-0.8s0.5-0.3,0.8-0.3c0.1,0,0.2,0,0.3,0
	s0.2,0,0.2,0l-0.2,1.6l-0.7,0c-0.2,0-0.5,0-0.6,0.1s-0.3,0.2-0.4,0.4v3.1l0.8,0.2v1H122V8.1z"/>
<path class="st0" d="M126.8,5.9c0-0.9,0.3-1.7,0.8-2.3s1.3-0.9,2.2-0.9c0.9,0,1.7,0.3,2.2,0.9s0.8,1.4,0.8,2.3V6
	c0,1-0.3,1.7-0.8,2.3s-1.3,0.9-2.2,0.9c-0.9,0-1.7-0.3-2.2-0.9S126.8,7,126.8,6V5.9z M128.5,6c0,0.6,0.1,1,0.3,1.4s0.5,0.5,1,0.5
	c0.4,0,0.8-0.2,1-0.5s0.3-0.8,0.3-1.4V5.9c0-0.6-0.1-1-0.3-1.4s-0.5-0.5-1-0.5s-0.8,0.2-1,0.5s-0.3,0.8-0.3,1.4V6z"/>
<path class="st0" d="M133.2,1V0h2.6v5.3h0.4l1-1.4l-0.6-0.1v-1h3.1v1L139,4l-1.1,1.6l1.6,2.4l0.7,0.1v1h-2.9v-1l0.4-0.1l-1-1.6h-0.7
	v1.5l0.7,0.2v1h-3.3v-1l0.8-0.2V1.2L133.2,1z"/>
<path class="st0" d="M143.7,9.3c-0.9,0-1.6-0.3-2.2-0.9s-0.8-1.3-0.8-2.2V5.9c0-0.9,0.3-1.7,0.8-2.3s1.2-0.9,2.1-0.9
	c0.9,0,1.5,0.3,2,0.8s0.7,1.2,0.7,2.1v0.9h-3.8l0,0c0,0.4,0.2,0.8,0.4,1s0.6,0.4,1,0.4c0.4,0,0.7,0,0.9-0.1s0.5-0.2,0.8-0.4l0.5,1.1
	c-0.3,0.2-0.6,0.4-1,0.5S144.2,9.3,143.7,9.3z M143.5,4c-0.3,0-0.6,0.1-0.8,0.4s-0.3,0.6-0.3,1l0,0h2.1V5.2c0-0.4-0.1-0.7-0.3-0.9
	S143.9,4,143.5,4z"/>
<path class="st0" d="M147.1,8.1l0.8-0.2V4l-0.9-0.2v-1h2.5l0.1,0.9c0.1-0.3,0.3-0.6,0.6-0.8s0.5-0.3,0.8-0.3c0.1,0,0.2,0,0.3,0
	s0.2,0,0.2,0l-0.2,1.6l-0.7,0c-0.2,0-0.5,0-0.6,0.1s-0.3,0.2-0.4,0.4v3.1l0.8,0.2v1h-3.4V8.1z"/>
<path class="st0" d="M13.5,58.2h-1.1v5.9h1.1c0.6,0,1.1-0.2,1.4-0.6s0.5-1,0.5-1.6v-1.4c0-0.7-0.2-1.2-0.5-1.6S14.1,58.2,13.5,58.2z
	"/>
<path class="st0" d="M0,49.4v24.1h35V49.4H0z M17.1,61.8c0,1-0.3,1.9-1,2.6s-1.5,1-2.6,1H9.7v-1l0.9-0.2v-6.1l-0.9-0.2v-1h0.9h2.9
	c1,0,1.9,0.3,2.6,1s1,1.5,1,2.6V61.8z M22.6,65.4H18v-1l1.4-0.2v-5.8H18v-1l3.2-0.6v7.3l1.4,0.2V65.4z"/>
<path class="st0" d="M15.4,103.7v-1.4c0-0.7-0.2-1.2-0.5-1.6s-0.8-0.6-1.4-0.6h-1.1v5.9h1.1c0.6,0,1.1-0.2,1.4-0.6
	S15.4,104.3,15.4,103.7z"/>
<path class="st0" d="M0,115.3h35V91.2H0V115.3z M18.7,99.4c0.5-0.5,1.2-0.8,2.1-0.8c0.9,0,1.6,0.2,2.1,0.7s0.8,1.1,0.8,1.8
	c0,0.5-0.1,1-0.4,1.4s-0.8,1-1.4,1.7l-1.5,1.7l0,0h2.2l0.1-0.8h1.3v2.2h-5.8v-1.1l2.8-3c0.4-0.5,0.7-0.8,0.8-1.2s0.3-0.6,0.3-0.9
	c0-0.4-0.1-0.7-0.3-0.9s-0.5-0.3-0.8-0.3c-0.4,0-0.7,0.1-0.9,0.4s-0.3,0.6-0.3,1.1h-1.7l0,0C17.9,100.5,18.2,99.9,18.7,99.4z
	 M9.7,106.2l0.9-0.2v-6.1l-0.9-0.2v-1h0.9h2.9c1,0,1.9,0.3,2.6,1s1,1.5,1,2.6v1.4c0,1-0.3,1.9-1,2.6s-1.5,1-2.6,1H9.7V106.2z"/>
<path class="st0" d="M15.4,145.5v-1.4c0-0.7-0.2-1.2-0.5-1.6s-0.8-0.6-1.4-0.6h-1.1v5.9h1.1c0.6,0,1.1-0.2,1.4-0.6
	S15.4,146.2,15.4,145.5z"/>
<path class="st0" d="M0,157.1h35v-24.1H0V157.1z M18,146.7h1.7c0,0.3,0.1,0.6,0.4,0.8s0.5,0.3,0.9,0.3c0.4,0,0.7-0.1,0.9-0.3
	s0.3-0.5,0.3-0.9c0-0.4-0.1-0.8-0.3-1s-0.6-0.3-1-0.3h-1v-1.3h1c0.4,0,0.7-0.1,0.9-0.3s0.3-0.5,0.3-0.9c0-0.3-0.1-0.6-0.3-0.8
	s-0.5-0.3-0.8-0.3c-0.3,0-0.6,0.1-0.8,0.3s-0.3,0.4-0.3,0.7h-1.7l0,0c0-0.7,0.2-1.2,0.8-1.7s1.2-0.7,2-0.7c0.9,0,1.6,0.2,2.1,0.6
	s0.8,1,0.8,1.8c0,0.4-0.1,0.7-0.4,1.1s-0.6,0.6-1,0.8c0.5,0.2,0.8,0.4,1.1,0.8s0.4,0.8,0.4,1.2c0,0.8-0.3,1.4-0.9,1.8
	s-1.3,0.7-2.2,0.7c-0.8,0-1.5-0.2-2-0.6S18,147.5,18,146.7L18,146.7z M9.7,148l0.9-0.2v-6.1l-0.9-0.2v-1h0.9h2.9c1,0,1.9,0.3,2.6,1
	s1,1.5,1,2.6v1.4c0,1-0.3,1.9-1,2.6s-1.5,1-2.6,1H9.7V148z"/>
<polygon class="st0" points="21.4,184.6 21.4,184.6 21.2,184.9 19.5,187.7 21.4,187.7 "/>
<path class="st0" d="M15.4,187.3v-1.4c0-0.7-0.2-1.2-0.5-1.6s-0.8-0.6-1.4-0.6h-1.1v5.9h1.1c0.6,0,1.1-0.2,1.4-0.6
	S15.4,188,15.4,187.3z"/>
<path class="st0" d="M0,199h35v-24.1H0V199z M21.4,182.4h1.7v5.4h1v1.1h-1v0.8l0.9,0.2v1h-3.5v-1l0.9-0.2v-0.8h-3.5l-0.1-0.8
	L21.4,182.4z M9.7,189.9l0.9-0.2v-6.1l-0.9-0.2v-1h0.9h2.9c1,0,1.9,0.3,2.6,1s1,1.5,1,2.6v1.4c0,1-0.3,1.9-1,2.6s-1.5,1-2.6,1H9.7
	V189.9z"/>
<polygon class="st0" points="223.5,223 217,223 217,222 222.5,222 222.5,216.5 223.5,216.5 "/>
<path class="st0" d="M204.2,223h-12.8v-1h12.8V223z M178.6,223h-12.8v-1h12.8V223z M152.9,223h-12.8v-1h12.8V223z M127.3,223h-12.8
	v-1h12.8V223z"/>
<polygon class="st0" points="101.6,223 95.1,223 95.1,216.5 96.1,216.5 96.1,222 101.6,222 "/>
<path class="st0" d="M96.1,205.1h-1v-11.5h1V205.1z M96.1,182.1h-1v-11.5h1V182.1z M96.1,159.2h-1v-11.5h1V159.2z M96.1,136.3h-1
	v-11.5h1V136.3z M96.1,113.4h-1v-11.5h1V113.4z M96.1,90.5h-1V79h1V90.5z M96.1,67.6h-1V56.1h1V67.6z M96.1,44.7h-1V33.2h1V44.7z"/>
<polygon class="st0" points="96.1,21.8 95.1,21.8 95.1,15.3 101.6,15.3 101.6,16.3 96.1,16.3 "/>
<path class="st0" d="M204.2,16.3h-12.8v-1h12.8V16.3z M178.6,16.3h-12.8v-1h12.8V16.3z M152.9,16.3h-12.8v-1h12.8V16.3z M127.3,16.3
	h-12.8v-1h12.8V16.3z"/>
<polygon class="st0" points="223.5,21.8 222.5,21.8 222.5,16.3 217,16.3 217,15.3 223.5,15.3 "/>
<path class="st0" d="M223.5,205.1h-1v-11.5h1V205.1z M223.5,182.1h-1v-11.5h1V182.1z M223.5,159.2h-1v-11.5h1V159.2z M223.5,136.3
	h-1v-11.5h1V136.3z M223.5,113.4h-1v-11.5h1V113.4z M223.5,90.5h-1V79h1V90.5z M223.5,67.6h-1V56.1h1V67.6z M223.5,44.7h-1V33.2h1
	V44.7z"/>
<path class="st0" d="M172.2,165.5c-0.3,0-0.5,0.1-0.7,0.2s-0.3,0.3-0.4,0.5v2.7c0.1,0.2,0.3,0.3,0.4,0.4s0.4,0.2,0.7,0.2
	c0.4,0,0.8-0.2,0.9-0.5s0.3-0.8,0.3-1.3v-0.1c0-0.6-0.1-1.1-0.3-1.5S172.7,165.5,172.2,165.5z"/>
<path class="st0" d="M176.4,179.9c-0.4,0-0.8,0.2-1,0.5s-0.3,0.8-0.3,1.4v0.1c0,0.6,0.1,1,0.3,1.4s0.5,0.5,1,0.5
	c0.4,0,0.8-0.2,1-0.5s0.3-0.8,0.3-1.4v-0.1c0-0.6-0.1-1-0.3-1.4S176.8,179.9,176.4,179.9z"/>
<path class="st0" d="M183.7,179.9c-0.3,0-0.5,0.1-0.7,0.2s-0.3,0.3-0.4,0.5v2.8c0.1,0.2,0.2,0.3,0.4,0.4s0.4,0.1,0.7,0.1
	c0.4,0,0.7-0.2,0.9-0.5s0.3-0.8,0.3-1.3v-0.1c0-0.6-0.1-1.1-0.3-1.5S184.1,179.9,183.7,179.9z"/>
<path class="st0" d="M158.3,31.2v123.2h9.9v3.7h-9.9v31.9h9.4v3.7h-9.4v12.9h50.2V31.2H158.3z M172.4,185.1c-0.2,0-0.4,0-0.6,0
	c-0.6,0-1-0.2-1.4-0.5s-0.5-0.8-0.5-1.5v-3.2H169v-1.2h0.9v-1.6h1.7v1.6h1.1v1.2h-1.1v3.2c0,0.2,0.1,0.4,0.2,0.5s0.2,0.2,0.4,0.2
	c0.1,0,0.2,0,0.3,0s0.2,0,0.3,0l0.1,1.2C172.8,185.1,172.6,185.1,172.4,185.1z M194.3,85.8l-10.9,10.9l-10.9-10.9h9.1V63.7h3.7v22.1
	H194.3z M179.4,182c0,1-0.3,1.7-0.8,2.3s-1.3,0.9-2.2,0.9c-0.9,0-1.7-0.3-2.2-0.9s-0.8-1.4-0.8-2.3v-0.1c0-0.9,0.3-1.7,0.8-2.3
	s1.3-0.9,2.2-0.9c0.9,0,1.7,0.3,2.2,0.9s0.8,1.4,0.8,2.3V182z M186.6,182.1c0,0.9-0.2,1.7-0.7,2.3s-1,0.9-1.8,0.9
	c-0.3,0-0.6-0.1-0.9-0.2s-0.5-0.3-0.7-0.5v1.8l0.8,0.2v1h-3.4v-1l0.8-0.2v-6.4l-0.9-0.2v-1h2.5l0.1,0.7c0.2-0.3,0.4-0.5,0.7-0.6
	s0.6-0.2,0.9-0.2c0.8,0,1.4,0.3,1.8,0.9s0.7,1.4,0.7,2.4V182.1z M175.1,167.7c0,0.9-0.2,1.7-0.6,2.3s-1,0.8-1.8,0.8
	c-0.4,0-0.7-0.1-1-0.2s-0.5-0.4-0.7-0.7l-0.1,0.8h-1.5v-7.9l-0.9-0.2v-1h2.6v3.5c0.2-0.3,0.4-0.4,0.7-0.6s0.5-0.2,0.9-0.2
	c0.8,0,1.4,0.3,1.8,0.9s0.6,1.4,0.6,2.4V167.7z M190.7,185.1h-3.4v-1l0.8-0.2v-3.9l-0.9-0.2v-1h2.6v5.1l0.8,0.2V185.1z M188.2,177.2
	v-1.3h1.7v1.3H188.2z M178.8,172.8c-0.3,0.3-0.8,0.5-1.4,0.5c-0.1,0-0.3,0-0.4,0s-0.3-0.1-0.4-0.1l0.2-1.2c0.1,0,0.1,0,0.2,0
	s0.1,0,0.2,0c0.3,0,0.5-0.1,0.7-0.2s0.3-0.3,0.4-0.5l0.2-0.5l-2-5.2l-0.6-0.1v-1h3.1v1l-0.7,0.1l0.9,2.5l0.1,0.5l0,0l1-3l-0.7-0.1
	v-1h3.1v1l-0.6,0.1l-2.3,6.2C179.3,172.1,179.1,172.4,178.8,172.8z M196.1,184.5c-0.5,0.4-1.1,0.6-1.9,0.6c-0.9,0-1.7-0.3-2.2-0.9
	s-0.8-1.4-0.8-2.3v-0.2c0-0.9,0.3-1.7,0.8-2.3s1.3-0.9,2.2-0.9c0.5,0,1,0.1,1.4,0.2s0.7,0.4,1,0.6l0,1.7h-1.4l-0.3-1
	c-0.1-0.1-0.2-0.1-0.3-0.2s-0.3-0.1-0.4-0.1c-0.5,0-0.8,0.2-1,0.5s-0.3,0.8-0.3,1.4v0.2c0,0.6,0.1,1,0.3,1.4s0.5,0.5,1,0.5
	c0.3,0,0.5-0.1,0.7-0.3s0.3-0.4,0.3-0.7h1.5l0,0C196.8,183.6,196.6,184.1,196.1,184.5z M200.5,60.4h-34.2v-5.5h34.2V60.4z
	 M200.5,52.1h-34.2v-5.5h34.2V52.1z M200.5,43.3h-34.2v-5.5h34.2V43.3z"/>
<path class="st0" d="M106.4,142.3h0.7v3.7h-0.7v19.5h24.8v-36.7h-24.8V142.3z M118.8,161.1l-5.4-5.4h4.5v-10.9h1.8v10.9h4.5
	L118.8,161.1z M110.3,132h16.9v2.7h-16.9V132z M110.3,136.4h16.9v2.7h-16.9V136.4z M110.3,140.5h16.9v2.7h-16.9V140.5z"/>
<path class="st0" d="M106.4,183.2h0.7v3.7h-0.7v19.8h24.8v-36.7h-24.8V183.2z M118.8,202.3l-5.4-5.4h4.5V186h1.8v10.9h4.5
	L118.8,202.3z M110.3,173.2h16.9v2.7h-16.9V173.2z M110.3,177.5h16.9v2.7h-16.9V177.5z M110.3,181.6h16.9v2.7h-16.9V181.6z"/>
<polygon class="st0" points="146.1,154.3 146.1,145.3 135.2,156.2 146.1,167.1 146.1,158 158.3,158 158.3,154.3 "/>
<rect x="158.3" y="154.3" class="st0" width="9.9" height="3.7"/>
<polygon class="st0" points="51.9,142.3 51.9,133.3 40.9,144.2 51.9,155.1 51.9,146 106.4,146 106.4,142.3 "/>
<rect x="106.4" y="142.3" class="st0" width="0.7" height="3.7"/>
<polygon class="st0" points="51.9,183.2 51.9,174.1 40.9,185 51.9,195.9 51.9,186.9 106.4,186.9 106.4,183.2 "/>
<rect x="106.4" y="183.2" class="st0" width="0.7" height="3.7"/>
<polygon class="st0" points="145.7,112.3 156.6,101.4 145.7,90.5 145.7,99.5 32.1,99.5 32.1,103.2 145.7,103.2 "/>
<polygon class="st0" points="145.7,71.4 156.6,60.5 145.7,49.6 145.7,58.7 32.1,58.7 32.1,62.4 145.7,62.4 "/>
<polygon class="st0" points="145.6,189.9 145.6,180.8 134.7,191.8 145.6,202.7 145.6,193.6 158.3,193.6 158.3,189.9 "/>
<rect x="158.3" y="189.9" class="st0" width="9.4" height="3.7"/>
</svg>
