<?xml version="1.0" encoding="utf-8"?>
<!-- Generator: Adobe Illustrator 20.0.0, SVG Export Plug-In . SVG Version: 6.00 Build 0)  -->
<svg version="1.1" id="Layer_1" xmlns="http://www.w3.org/2000/svg" xmlns:xlink="http://www.w3.org/1999/xlink" x="0px" y="0px"
	 viewBox="0 0 806 93.4" style="enable-background:new 0 0 806 93.4;" xml:space="preserve">
<style type="text/css">
	.st0{fill:#F3B435;}
	.st1{font-family:'BebasNeueBold';}
	.st2{font-size:57.4094px;}
	.st3{fill:#4D4D4C;}
	.st4{fill:#333232;}
</style>
<text transform="matrix(1 0 0 1 1.831055e-04 83.1118)"><tspan x="0" y="0" class="st0 st1 st2">networking | </tspan><tspan x="272.3" y="0" class="st3 st1 st2">nodemcu</tspan></text>
<g>
	<g>
		<g>
			<path class="st4" d="M610,77.5h-15.2l-4,8.6h-5.8l17.6-37.8l17,37.8h-5.9L610,77.5z M607.8,72.5l-5.3-12.1L597,72.5H607.8z"/>
			<path class="st4" d="M628.3,47.3v38.9h-5.2V47.3H628.3z"/>
			<path class="st4" d="M652.3,64.7v6.9c-1.2-1.4-2.2-2.4-3.2-3c-0.9-0.6-2-0.8-3.2-0.8c-1.9,0-3.6,0.7-4.9,2
				c-1.3,1.4-1.9,3.1-1.9,5.1c0,2.1,0.6,3.8,1.9,5.2c1.3,1.4,2.9,2,4.8,2c1.2,0,2.3-0.3,3.3-0.8c0.9-0.5,2-1.5,3.2-3v6.8
				c-2.1,1.1-4.2,1.6-6.3,1.6c-3.5,0-6.4-1.1-8.7-3.4c-2.3-2.3-3.5-5.1-3.5-8.4c0-3.3,1.2-6.2,3.5-8.5c2.4-2.3,5.3-3.5,8.7-3.5
				C648.2,63.1,650.3,63.7,652.3,64.7z"/>
			<path class="st4" d="M658.5,47.3h5.2v18.3c1.8-1.7,3.9-2.5,6.1-2.5c2.5,0,4.6,0.8,6.1,2.5c1.3,1.4,1.9,3.7,1.9,6.8v13.7h-5.2
				V72.9c0-1.8-0.3-3.1-1-3.9c-0.6-0.8-1.7-1.2-3.1-1.2c-1.8,0-3.1,0.6-3.8,1.7c-0.7,1.1-1.1,3.1-1.1,5.8v10.8h-5.2V47.3z"/>
			<path class="st4" d="M704.8,76.2h-16.1c0.1,1.8,0.7,3.3,1.8,4.4c1.1,1.1,2.4,1.6,4.1,1.6c1.3,0,2.4-0.3,3.2-0.9
				c0.8-0.6,1.8-1.8,2.8-3.4l4.4,2.4c-0.7,1.2-1.4,2.1-2.1,3c-0.8,0.8-1.6,1.5-2.4,2c-0.9,0.5-1.8,0.9-2.8,1.2
				c-1,0.2-2.1,0.4-3.2,0.4c-3.3,0-6-1.1-8.1-3.2c-2-2.2-3-5-3-8.6c0-3.5,1-6.4,2.9-8.6c2-2.2,4.6-3.2,7.9-3.2
				c3.3,0,5.9,1.1,7.8,3.2c1.9,2.1,2.9,5,2.9,8.7L704.8,76.2z M699.5,71.9c-0.7-2.8-2.5-4.1-5.2-4.1c-0.6,0-1.2,0.1-1.8,0.3
				c-0.6,0.2-1.1,0.5-1.5,0.8c-0.5,0.4-0.8,0.8-1.2,1.3c-0.3,0.5-0.6,1.1-0.7,1.7H699.5z"/>
			<path class="st4" d="M710.5,63.7h5.2v2.1c1-1,1.8-1.8,2.6-2.1c0.8-0.4,1.7-0.6,2.8-0.6c2.5,0,4.5,1.1,6,3.3
				c1.6-2.2,3.8-3.3,6.6-3.3c5.1,0,7.6,3.1,7.6,9.2v13.9H736V73.7c0-2.1-0.3-3.7-0.8-4.6c-0.5-0.9-1.4-1.4-2.6-1.4
				c-1.4,0-2.5,0.5-3.1,1.6c-0.7,1.1-1,2.8-1,5.2v11.6h-5.2V73.8c0-4-1.2-6-3.5-6c-1.5,0-2.5,0.5-3.2,1.6c-0.7,1.1-1,2.8-1,5.2v11.6
				h-5.2V63.7z"/>
			<path class="st4" d="M747,54.4c0-0.9,0.3-1.7,1-2.3c0.7-0.7,1.5-1,2.4-1c0.9,0,1.7,0.3,2.4,1c0.7,0.6,1,1.4,1,2.4
				c0,0.9-0.3,1.7-1,2.4c-0.6,0.7-1.4,1-2.4,1c-0.9,0-1.7-0.3-2.4-1C747.3,56.2,747,55.4,747,54.4z M753,63.7v22.4h-5.2V63.7H753z"
				/>
			<path class="st4" d="M772.6,67.6l-4.3,2.3c-0.7-1.4-1.5-2-2.5-2c-0.5,0-0.9,0.2-1.2,0.5c-0.3,0.3-0.5,0.7-0.5,1.2
				c0,0.9,1,1.7,3,2.6c2.7,1.2,4.6,2.3,5.5,3.3c1,1,1.4,2.3,1.4,4c0,2.2-0.8,4-2.4,5.4c-1.5,1.4-3.4,2.1-5.6,2.1
				c-3.8,0-6.4-1.8-8-5.5l4.4-2c0.6,1.1,1.1,1.8,1.4,2c0.6,0.6,1.4,0.9,2.3,0.9c1.8,0,2.6-0.8,2.6-2.4c0-0.9-0.7-1.8-2-2.6
				c-0.5-0.3-1-0.5-1.6-0.8c-0.5-0.2-1.1-0.5-1.6-0.8c-1.5-0.7-2.6-1.5-3.2-2.2c-0.8-0.9-1.2-2.1-1.2-3.6c0-1.9,0.7-3.6,2-4.8
				c1.4-1.3,3-1.9,5-1.9C769,63.1,771.2,64.6,772.6,67.6z"/>
			<path class="st4" d="M784,68.6v17.6h-5.2V68.6h-2.2v-4.8h2.2v-8.2h5.2v8.2h4v4.8H784z"/>
			<path class="st4" d="M804.6,67.6l-4.3,2.3c-0.7-1.4-1.5-2-2.5-2c-0.5,0-0.9,0.2-1.2,0.5c-0.3,0.3-0.5,0.7-0.5,1.2
				c0,0.9,1,1.7,3,2.6c2.7,1.2,4.6,2.3,5.5,3.3c1,1,1.4,2.3,1.4,4c0,2.2-0.8,4-2.4,5.4c-1.6,1.4-3.4,2.1-5.6,2.1
				c-3.8,0-6.4-1.8-8-5.5l4.4-2c0.6,1.1,1.1,1.8,1.4,2c0.6,0.6,1.4,0.9,2.3,0.9c1.8,0,2.6-0.8,2.6-2.4c0-0.9-0.7-1.8-2-2.6
				c-0.5-0.3-1-0.5-1.6-0.8c-0.5-0.2-1.1-0.5-1.6-0.8c-1.5-0.7-2.6-1.5-3.2-2.2c-0.8-0.9-1.2-2.1-1.2-3.6c0-1.9,0.7-3.6,2-4.8
				c1.4-1.3,3-1.9,5-1.9C801.1,63.1,803.2,64.6,804.6,67.6z"/>
			<path class="st4" d="M627.3,27.5c0-3.2,1.2-6,3.5-8.3c2.3-2.3,5.1-3.4,8.5-3.4c3.3,0,6.2,1.1,8.5,3.4c2.3,2.3,3.5,5.1,3.5,8.4
				c0,3.4-1.2,6.2-3.5,8.5c-2.3,2.3-5.2,3.4-8.6,3.4c-3.4,0-6.2-1.2-8.5-3.5C628.5,33.8,627.3,31,627.3,27.5z M632.6,27.6
				c0,2.2,0.6,4,1.8,5.3c1.2,1.3,2.8,2,4.9,2c2,0,3.6-0.7,4.9-2c1.2-1.3,1.8-3,1.8-5.2c0-2.2-0.6-3.9-1.8-5.2c-1.2-1.3-2.8-2-4.9-2
				c-2,0-3.6,0.7-4.8,2C633.3,23.8,632.6,25.5,632.6,27.6z"/>
			<path class="st4" d="M673.3,0h5.2v38.9h-5.2v-2.3c-2,2-4.4,3-6.9,3c-3.1,0-5.6-1.1-7.6-3.4c-2-2.3-3-5.1-3-8.6c0-3.3,1-6.1,3-8.4
				c2-2.3,4.5-3.4,7.5-3.4c2.6,0,5,1.1,7,3.2V0z M661,27.6c0,2.1,0.6,3.9,1.7,5.3c1.2,1.4,2.7,2,4.5,2c1.9,0,3.5-0.7,4.7-2
				c1.2-1.4,1.8-3.1,1.8-5.2c0-2.1-0.6-3.8-1.8-5.2c-1.2-1.3-2.7-2-4.6-2c-1.8,0-3.3,0.7-4.5,2C661.6,23.9,661,25.6,661,27.6z"/>
			<path class="st4" d="M705.5,28.9h-16.1c0.1,1.8,0.7,3.3,1.8,4.4c1.1,1.1,2.4,1.6,4.1,1.6c1.3,0,2.4-0.3,3.2-0.9
				c0.8-0.6,1.8-1.8,2.8-3.4l4.4,2.4c-0.7,1.2-1.4,2.1-2.1,3c-0.8,0.8-1.6,1.5-2.4,2s-1.8,0.9-2.8,1.2c-1,0.2-2.1,0.4-3.2,0.4
				c-3.3,0-6-1.1-8.1-3.2c-2-2.2-3-5-3-8.6c0-3.5,1-6.4,2.9-8.6c2-2.2,4.6-3.2,7.9-3.2c3.3,0,5.9,1.1,7.8,3.2c1.9,2.1,2.9,5,2.9,8.7
				L705.5,28.9z M700.1,24.7c-0.7-2.8-2.5-4.1-5.2-4.1c-0.6,0-1.2,0.1-1.8,0.3c-0.6,0.2-1.1,0.5-1.5,0.8c-0.5,0.4-0.8,0.8-1.2,1.3
				c-0.3,0.5-0.6,1.1-0.7,1.7H700.1z"/>
			<path class="st4" d="M711.1,16.5h5.2v2c1-1,1.8-1.7,2.5-2c0.8-0.4,1.6-0.6,2.7-0.6c1.4,0,2.8,0.4,4.3,1.3l-2.4,4.7
				c-1-0.7-1.9-1.1-2.9-1.1c-2.8,0-4.2,2.1-4.2,6.4v11.6h-5.2V16.5z"/>
			<path class="st4" d="M729.5,16.5h5.2v2.1c1.8-1.8,3.9-2.7,6.1-2.7c2.6,0,4.6,0.8,6.1,2.5c1.3,1.4,1.9,3.7,1.9,6.8v13.7h-5.2V26.4
				c0-2.2-0.3-3.7-0.9-4.6c-0.6-0.9-1.7-1.3-3.3-1.3c-1.7,0-2.9,0.6-3.7,1.7c-0.7,1.1-1.1,3.1-1.1,5.9v10.8h-5.2V16.5z"/>
			<path class="st4" d="M582.8,39.4l7.5-38.2l12.2,27.6l12.6-27.6l6.7,38.2h-5.5l-3.4-21.5L602.4,41l-10.2-23.1l-3.8,21.5H582.8z"/>
		</g>
	</g>
	<g>
		<polygon class="st0" points="532.6,22.1 543.4,45 543.4,45 548.3,56.2 556.6,56.2 532.1,2.4 506.2,64.2 524,64.2 527.5,57.2 
			517.5,57.2 		"/>
		<polygon class="st0" points="526.3,80.2 542.3,45 538.2,36.2 514.4,87.2 570.5,87.2 560.6,65.2 552.2,65.2 558.5,80.2 		"/>
		<polygon class="st0" points="568.2,57.2 537.6,57.2 534.2,64.2 579.6,64.2 553.7,2.4 543.4,24.8 547.5,33.9 553.1,22.1 		"/>
	</g>
</g>
</svg>
